<svg width="46" height="44" viewBox="0 0 46 44" fill="none" xmlns="http://www.w3.org/2000/svg">
<path d="M23.0327 43.5584C22.7931 43.5584 22.5535 43.4671 22.3705 43.2844C21.4286 42.3444 20.4707 41.3986 19.5444 40.4838C10.2496 31.3047 1.47021 22.6346 1.47021 13.0285C1.47021 10.0543 2.63421 6.94656 4.66371 4.50231C6.84237 1.87844 9.64943 0.433376 12.5677 0.433376C17.786 0.433376 20.7567 3.91375 23.0326 8.03622C25.308 3.91375 28.2758 0.433376 33.481 0.433376C36.4062 0.433376 39.2183 1.87825 41.3993 4.50194C43.4304 6.94525 44.5952 10.0531 44.5952 13.0285C44.5952 22.6115 35.8471 31.2601 26.5854 40.4163C25.6381 41.3528 24.6585 42.3213 23.6955 43.2839C23.5125 43.4669 23.2725 43.5584 23.0327 43.5584ZM12.5677 2.30847C7.37384 2.30847 3.34521 8.07119 3.34521 13.0286C3.34521 21.8511 11.8538 30.2538 20.8619 39.1497C21.5737 39.8526 22.3039 40.5737 23.0322 41.2974C23.7821 40.5513 24.5342 39.8075 25.2672 39.0829C34.2426 30.2098 42.7203 21.8287 42.7203 13.0285C42.7203 8.0711 38.6844 2.30838 33.4811 2.30838C28.901 2.30838 26.3268 5.57313 23.8709 10.475C23.712 10.7923 23.3876 10.9926 23.0327 10.9926C22.6779 10.9926 22.3535 10.7923 22.1945 10.475C19.7385 5.57313 17.1616 2.30847 12.5677 2.30847Z" fill="#2999FF"/>
<path d="M32.4078 21.0585C32.0943 21.0585 31.8016 20.9018 31.6278 20.641L28.6578 16.1861L25.6878 20.641C25.514 20.9018 25.2212 21.0585 24.9078 21.0585C24.5944 21.0585 24.3016 20.9018 24.1278 20.641L21.1578 16.1861L18.1878 20.641C18.014 20.9018 17.7212 21.0585 17.4078 21.0585C17.0944 21.0585 16.8016 20.9018 16.6278 20.641L13.6578 16.1861L10.6878 20.641C10.514 20.9018 10.2212 21.0585 9.90781 21.0585C9.5944 21.0585 9.30162 20.9018 9.12781 20.641L7.53106 18.246H1.47021C0.952434 18.246 0.532715 17.8263 0.532715 17.3085C0.532715 16.7907 0.952434 16.371 1.47021 16.371H8.03271C8.34621 16.371 8.6389 16.5276 8.81271 16.7884L9.90771 18.4308L12.8777 13.9759C13.0515 13.7151 13.3443 13.5585 13.6577 13.5585C13.9711 13.5585 14.2639 13.7151 14.4377 13.9759L17.4077 18.4308L20.3777 13.9759C20.5515 13.7151 20.8443 13.5585 21.1577 13.5585C21.4711 13.5585 21.7639 13.7151 21.9377 13.9759L24.9077 18.4309L27.8777 13.9759C28.0515 13.7151 28.3443 13.5585 28.6577 13.5585C28.9711 13.5585 29.2639 13.7151 29.4377 13.9759L32.4077 18.4308L35.3777 13.9759C35.5632 13.6979 35.8831 13.5392 36.2159 13.5603C36.5495 13.581 36.8468 13.7778 36.9962 14.0766L38.6121 17.3084H44.5951C45.1128 17.3084 45.5326 17.7281 45.5326 18.2459C45.5326 18.7637 45.1128 19.1834 44.5951 19.1834H38.0326C37.6775 19.1834 37.3529 18.9828 37.1941 18.6651L36.0416 16.3601L33.1877 20.6409C33.0139 20.9018 32.7212 21.0585 32.4078 21.0585Z" fill="#2999FF"/>
</svg>
