<svg width="64" height="62" viewBox="0 0 64 62" fill="none" xmlns="http://www.w3.org/2000/svg">
<path d="M23.0023 1.78005C21.3146 2.76478 19.7895 3.72426 19.602 3.92626C19.1769 4.38075 18.9394 5.15086 19.0519 5.71897C19.0894 5.94621 19.527 6.84257 20.002 7.70105L20.8771 9.26652L20.3771 10.024C20.102 10.4406 19.702 11.135 19.4895 11.5768L19.1144 12.3848H17.2017C15.4266 12.3848 15.2641 12.4101 14.8765 12.6626C14.3265 13.0413 14.0139 13.4958 13.8764 14.1018C13.7264 14.7457 13.7264 20.8813 13.8764 21.5251C14.0264 22.2069 14.3515 22.6235 15.0015 22.9517C15.5016 23.2169 15.7391 23.2421 17.3393 23.2421H19.1269L19.552 24.088C19.7895 24.5677 20.177 25.2494 20.4271 25.6282L20.8771 26.2973L19.977 27.9006C19.1519 29.3398 19.0644 29.5545 19.0644 30.1857C19.0644 31.2336 19.3645 31.6249 20.9021 32.5339C26.1776 35.6901 26.5151 35.8416 27.5527 35.4376C28.2528 35.1725 28.4278 34.9579 29.4154 33.2409L30.228 31.8017H32.0032H33.7784L34.5909 33.2409C35.566 34.9452 35.7535 35.1599 36.4536 35.4376C37.4912 35.8416 37.8537 35.6775 43.0667 32.5718C44.6044 31.6502 44.9419 31.2209 44.9419 30.1983C44.9419 29.5545 44.8544 29.3525 44.0293 27.9006L43.1293 26.2973L43.5793 25.6282C43.8293 25.2494 44.2169 24.5677 44.4544 24.088L44.8794 23.2421H46.6671C48.7798 23.2421 49.2799 23.078 49.8424 22.2195L50.1924 21.6893L50.2299 18.3942C50.2549 16.5889 50.2424 14.8088 50.1924 14.4427C50.1049 13.6852 49.7424 13.0792 49.1423 12.6752C48.7423 12.4101 48.5923 12.3848 46.8046 12.3848H44.8919L44.5169 11.5895C44.3044 11.1602 43.9168 10.4532 43.6293 10.0366L43.1293 9.26652L44.0043 7.70105C44.4794 6.84257 44.9169 5.97146 44.9544 5.74422C45.0544 5.20136 44.8044 4.36812 44.4044 3.92626C44.2169 3.72426 42.6917 2.75216 41.0041 1.78005L37.9413 -3.43323e-05L37.1162 0.037838C36.5286 0.0630875 36.2036 0.151463 35.9411 0.353458C35.741 0.492329 35.166 1.32556 34.6784 2.17142L33.7784 3.73689H32.0032H30.228L29.3279 2.17142C28.2653 0.340832 27.8778 0.0125885 26.7527 0.0125885C26.0901 0.0125885 25.9276 0.0883369 23.0023 1.78005ZM27.7903 4.11563C29.0279 6.28708 29.0029 6.27446 30.6781 6.08509C31.7032 5.97146 32.3032 5.97146 33.3283 6.08509C34.5659 6.22396 34.6659 6.22396 34.966 5.99671C35.141 5.85784 35.7285 4.98674 36.2661 4.05251C36.7911 3.11827 37.2912 2.36079 37.3537 2.37342C37.5162 2.41129 42.2917 5.20136 42.4667 5.36548C42.5792 5.46648 42.3917 5.90834 41.6291 7.24656C40.429 9.35489 40.404 9.51902 41.1791 10.5416C41.8291 11.3749 42.4667 12.5237 42.8792 13.5716C43.2793 14.5815 43.4793 14.6573 45.942 14.6573H47.8797V17.8135V20.9697H45.767C43.8293 20.9697 43.6418 20.9949 43.3293 21.2348C43.1543 21.3736 43.0042 21.563 43.0042 21.6514C43.0042 21.967 41.7916 24.2142 41.2291 24.9717C40.3915 26.0574 40.4165 26.1963 41.6416 28.3299C42.1917 29.302 42.6042 30.1352 42.5417 30.1857C42.2292 30.4761 37.3537 33.2156 37.2662 33.1525C37.2037 33.1146 36.7036 32.3193 36.1661 31.3598C35.041 29.3903 34.891 29.2641 33.7533 29.4282C32.8658 29.5671 31.1406 29.5671 30.253 29.4282C29.0904 29.2641 28.9404 29.3903 27.8028 31.4356C27.2652 32.4077 26.7777 33.2156 26.7152 33.2156C26.6277 33.2156 21.6522 30.3498 21.4647 30.1857C21.4022 30.1352 21.8147 29.302 22.3647 28.3299C23.0273 27.181 23.3773 26.4362 23.3773 26.1837C23.3773 25.9185 23.1773 25.5272 22.7523 24.9338C22.1147 24.0627 21.0021 21.9796 21.0021 21.664C21.0021 21.563 20.8521 21.3736 20.6771 21.2348C20.3646 20.9949 20.177 20.9697 18.1768 20.9697H16.0016V17.8135V14.6573H18.0018C20.5896 14.6573 20.7146 14.6068 21.1771 13.4453C21.6147 12.3343 22.1147 11.4632 22.8148 10.5416C23.6024 9.51902 23.5899 9.36752 22.3522 7.19606C21.7897 6.21133 21.3772 5.3781 21.4397 5.35285C21.5147 5.3276 22.7148 4.63324 24.1274 3.81264C25.5401 2.9794 26.7277 2.34817 26.7777 2.38604C26.8152 2.43654 27.2777 3.20665 27.7903 4.11563Z" fill="#2999FF"/>
<path d="M30.9279 8.10502C28.7526 8.29439 26.8275 9.25387 25.1023 10.9961C24.1772 11.9429 23.9397 12.2712 23.4021 13.4074C23.0521 14.127 22.6771 15.1244 22.5771 15.6294C22.327 16.753 22.327 18.735 22.5645 19.8587C23.2646 23.1916 25.6773 25.8933 29.0027 27.0421C30.1278 27.4461 30.2778 27.4587 32.003 27.4587C33.7281 27.4587 33.8781 27.4461 35.0033 27.0421C37.816 26.07 39.9787 24.0122 41.0038 21.3357C41.5164 19.9975 41.6789 18.8992 41.5914 17.258C41.4789 14.8719 40.6288 12.814 39.0411 11.1097C36.9034 8.83726 34.1907 7.82728 30.9279 8.10502ZM33.8156 10.5542C35.8783 11.0971 37.691 12.6121 38.6036 14.531C39.1912 15.7809 39.3787 16.5888 39.3787 17.8639C39.3787 19.0254 38.9536 20.553 38.3661 21.5504C36.8784 24.0753 33.8406 25.5777 31.0779 25.1737C29.1402 24.8959 27.24 23.7849 26.1649 22.3078C25.4273 21.2979 25.1898 20.8055 24.8773 19.6945C24.2272 17.2832 24.8773 14.6194 26.6024 12.7509C28.0276 11.1855 29.8403 10.3649 31.8779 10.3649C32.5655 10.3649 33.3906 10.4532 33.8156 10.5542Z" fill="#2999FF"/>
<path d="M30.4404 12.5488C28.6527 13.1548 27.4026 14.4046 26.8776 16.1468C25.9025 19.3409 27.8902 22.5854 31.178 23.1536C34.2158 23.6712 37.1286 21.3356 37.3411 18.1794C37.5036 15.8186 36.316 13.7986 34.1783 12.8013C33.5532 12.5109 33.2407 12.4478 32.1906 12.4225C31.403 12.3973 30.7529 12.4478 30.4404 12.5488ZM33.3157 14.9601C34.6908 15.604 35.4034 17.1694 35.0034 18.6339C34.8158 19.3283 34.0408 20.2499 33.3282 20.6286C32.6281 20.9947 31.3905 21.0074 30.6779 20.6286C29.6653 20.0858 29.0028 19.1389 28.9028 18.0658C28.6777 15.6923 31.1655 13.9375 33.3157 14.9601Z" fill="#2999FF"/>
<path d="M1.81268 33.1272C1.12511 33.4555 0.437542 34.1625 0.175017 34.8063C0.0250024 35.1598 0 37.3565 0 47.3932V59.5508L0.350034 60.2452C0.72507 61.0026 1.48764 61.6591 2.22522 61.8738C2.48774 61.9369 4.07539 62 5.88807 62C9.3384 62 9.72594 61.9495 10.5385 61.3183L10.9511 61.0026L24.9399 60.9521C40.2039 60.9143 39.4788 60.9395 41.1415 60.1947C42.1291 59.7528 62.3685 47.2796 62.8311 46.8251C63.5812 46.1055 63.9312 45.2722 63.9812 44.0476C64.0312 43.0881 63.9937 42.8735 63.7187 42.2675C63.0561 40.7904 61.831 39.9193 60.2683 39.8057C59.4307 39.7552 59.3432 39.7805 49.0547 43.2396C43.3542 45.1586 38.4162 46.7619 38.0787 46.7998C37.4786 46.8882 37.4661 46.8882 37.5536 46.5852C38.3162 43.8078 36.566 40.7526 33.5532 39.629C32.8657 39.3765 32.5031 39.3512 28.5653 39.2755C24.6274 39.1997 24.2523 39.1745 23.4398 38.9094C22.3772 38.5685 21.3021 37.9878 20.2395 37.1798C19.2769 36.4602 17.4892 35.5891 16.3766 35.2861C15.864 35.1472 14.8264 35.0462 13.6013 34.9957L11.6511 34.9199L11.2261 34.2887C10.9886 33.9352 10.551 33.506 10.201 33.2787L9.58843 32.9L6.01308 32.8621C2.48774 32.8369 2.42523 32.8369 1.81268 33.1272ZM9.18839 35.4249L9.50092 35.7279V47.4184V59.1089L9.18839 59.4119L8.88836 59.7275H5.87557H2.86278L2.56275 59.4119L2.25022 59.1089V47.3679V35.6269L2.57525 35.3744C2.88778 35.1219 3.0628 35.1093 5.90057 35.1093H8.88836L9.18839 35.4249ZM15.439 37.4449C16.5766 37.6848 17.8892 38.3286 19.1644 39.2629C20.402 40.1718 21.7146 40.8157 23.0647 41.1818C23.9648 41.4343 24.4899 41.4722 28.2527 41.5353L32.4406 41.6111L33.1532 41.9645C34.1283 42.4443 35.0659 43.5048 35.3284 44.4137C35.5409 45.1586 35.5034 45.7015 35.1659 46.4085L34.9659 46.8377L30.703 46.8882C27.1026 46.9261 26.3275 46.9639 25.69 47.1533C24.0523 47.6457 21.6521 48.9965 21.3896 49.5899C21.177 50.0696 21.2271 50.4736 21.5521 50.8524C21.9896 51.37 22.6397 51.3321 23.5273 50.7387C24.4149 50.1454 25.2774 49.7035 26.1275 49.4258C26.7401 49.2238 27.4902 49.1859 32.9407 49.1354L39.0663 49.0596L49.4798 45.55C57.9181 42.6968 59.9808 42.0403 60.3183 42.1034C61.531 42.3433 62.156 43.8078 61.4684 44.8304C61.0934 45.3985 40.7289 57.9475 39.5038 58.3767L38.6912 58.6544L25.2274 58.6923L11.7511 58.7302V47.9865V37.2555H13.1638C13.9263 37.2555 14.9514 37.3439 15.439 37.4449Z" fill="#2999FF"/>
</svg>
