<svg width="64" height="64" viewBox="0 0 64 64" fill="none" xmlns="http://www.w3.org/2000/svg">
<path d="M14.6199 3.3865C12.4995 4.01811 10.9544 5.59712 10.413 7.70623C10.1648 8.68748 10.1536 14.496 10.4017 15.4547C10.6385 16.3683 11.1461 17.3044 11.7551 17.9924L12.2852 18.5789L12.2063 19.3797C12.0822 20.5752 12.0371 20.6767 11.225 21.376C10.5709 21.9399 10.1536 22.1655 8.01062 23.0903C5.32629 24.252 4.72852 24.6468 3.99541 25.6844C3.76984 26.0228 3.47659 26.6206 3.35253 27.0153C3.13823 27.7033 3.12695 28.0755 3.12695 34.0532C3.12695 37.9556 3.17207 40.4369 3.23974 40.5723C3.29613 40.6851 3.51043 40.8317 3.70217 40.8994C4.16459 41.0573 4.78492 40.8091 4.87515 40.4369C4.8977 40.2903 4.94282 37.4368 4.9541 34.087L4.98793 27.9966L5.37141 27.2183C5.6421 26.6657 5.87895 26.3612 6.21731 26.113C6.6459 25.8198 10.1423 24.2182 10.3679 24.2182C10.413 24.2182 10.8077 25.3348 11.2476 26.6995C12.0935 29.3387 12.1386 29.4064 12.8604 29.4064C13.1763 29.4064 13.5146 29.2147 14.5635 28.4477L15.8719 27.489V29.4064V31.3238L15.432 31.5381C14.8681 31.8313 14.1011 32.711 13.9545 33.2299C13.8642 33.5569 12.3755 41.9032 12.3755 42.0949C12.3755 42.1287 11.2589 42.1513 9.88288 42.1513H7.39029L7.06321 42.4784C6.88275 42.6588 6.73613 42.907 6.73613 43.031C6.73613 43.5611 7.44668 46.1891 7.69482 46.5613C7.85272 46.8094 8.1798 47.0801 8.50688 47.238L9.04826 47.5087H19.481C29.1469 47.5087 29.9476 47.4974 30.3424 47.3169C31.0304 47.0011 31.5943 46.4936 31.9214 45.8958C32.2259 45.3319 32.2823 45.0499 34.1546 34.3577C34.3238 33.399 34.211 32.6998 33.8162 32.1471C33.3538 31.5042 32.8124 31.2787 31.6394 31.2335L30.6469 31.1884V29.7673C30.6469 27.4552 30.2634 26.2258 29.2145 25.1092C28.5152 24.3648 28.2558 24.2182 25.5602 23.0339C23.5526 22.1542 23.1128 21.9286 22.436 21.3421L21.6465 20.6767L21.5112 19.6278L21.3646 18.5902L21.9398 17.9585C22.2669 17.6089 22.6729 17.0111 22.8534 16.6277C23.4286 15.387 23.485 14.9584 23.485 11.5297C23.485 8.54086 23.4737 8.32656 23.2255 7.52578C23.0789 7.06335 22.8082 6.42046 22.6278 6.09338C21.8834 4.79634 20.3833 3.7023 18.793 3.30755C17.6764 3.03686 15.7027 3.0707 14.6199 3.3865ZM18.4659 5.2362C19.6953 5.56329 20.6089 6.34151 21.1277 7.4581C21.4097 8.08971 21.7255 9.72512 21.5789 9.86046C21.5337 9.91685 20.9247 9.95069 20.2367 9.95069C19.0186 9.95069 18.9509 9.93941 18.2629 9.56721C17.4847 9.1499 17.0674 8.72131 16.5937 7.89797C16.12 7.07463 15.9959 6.96184 15.5335 6.96184C15.026 6.96184 14.8229 7.10846 14.4846 7.74007C14.1349 8.41679 13.5597 8.85666 12.9394 8.93561C12.1724 9.03712 12.0935 8.92433 12.3191 8.13482C12.5446 7.34531 13.1199 6.42046 13.6387 6.01443C14.9019 5.05574 16.7403 4.7625 18.4659 5.2362ZM17.6426 11.4508L18.5223 11.8681H20.0675H21.624V12.8268C21.624 14.9697 21.2518 15.9622 19.9886 17.169C19.5374 17.6089 18.8945 18.1164 18.5562 18.2969C18.0148 18.6014 17.8569 18.6353 16.8869 18.6353C15.6012 18.6353 15.1613 18.4661 14.0785 17.53C12.4544 16.1427 12.1499 15.3757 12.1499 12.714V10.9432L13.0296 10.8868C13.9545 10.8304 14.8117 10.4921 15.2402 10.0184L15.4545 9.78151L16.1087 10.4018C16.5147 10.7966 17.0899 11.1801 17.6426 11.4508ZM14.9696 20.3383C15.8719 20.6541 17.9246 20.6316 18.8607 20.3045C19.5938 20.0451 19.7066 20.0789 19.7066 20.609C19.7066 20.812 19.3006 21.3534 18.2742 22.5151L16.8305 24.128L16.5486 23.7896C16.3907 23.6092 15.7365 22.8648 15.1049 22.1429C13.9432 20.8459 13.9319 20.8346 14.0109 20.3835C14.0673 20.0564 14.1237 19.9549 14.2139 20.0225C14.2928 20.0789 14.6312 20.2256 14.9696 20.3383ZM15.3192 25.4476C15.2177 25.6168 13.3342 26.9251 13.3116 26.8461C13.289 26.7897 13.0183 25.9438 12.7138 24.9513L12.1386 23.1467L12.4995 22.8422L12.8492 22.549L14.1124 23.9588C14.8004 24.737 15.3418 25.4025 15.3192 25.4476ZM21.2743 22.9099L21.5337 23.1806L20.936 25.0416L20.3495 26.9138L19.684 26.4401C19.3118 26.1807 18.8494 25.8311 18.6577 25.6732L18.308 25.3799L19.5261 24.0039C20.2029 23.2595 20.8119 22.6392 20.8796 22.6392C20.9585 22.6392 21.139 22.7633 21.2743 22.9099ZM27.6017 26.2258C27.8385 26.4288 28.1769 26.88 28.3573 27.2409C28.6506 27.8387 28.6731 27.9966 28.7183 29.5417L28.7521 31.211H23.2707H17.7892V29.3387V27.4665L18.1614 27.7372C19.9773 29.0906 20.4736 29.4064 20.8457 29.4064C21.545 29.4064 21.624 29.2711 22.4699 26.6206L23.2481 24.1393L25.2106 24.9964C26.3385 25.4814 27.3535 26.0115 27.6017 26.2258ZM32.2259 33.2975C32.4064 33.5118 30.5003 44.5424 30.207 44.971C30.0943 45.1289 29.8348 45.3432 29.6206 45.4447C29.2709 45.6364 28.6619 45.6477 21.7932 45.6477C15.229 45.6477 14.3154 45.6251 14.0898 45.4672C13.9545 45.377 13.8417 45.1965 13.8417 45.0612C13.8417 44.6326 15.7591 33.9066 15.8719 33.6923C16.1877 33.1058 15.9057 33.1284 24.2857 33.1284C30.9627 33.1284 32.1019 33.1509 32.2259 33.2975ZM11.992 44.2491C11.9582 44.3506 11.9243 44.7003 11.9243 45.0386V45.6477H10.6949C9.84904 45.6477 9.43173 45.6026 9.35278 45.5011C9.28511 45.4334 9.16104 45.0725 9.07081 44.7116L8.90163 44.0687H10.4806C11.8792 44.0687 12.0484 44.0912 11.992 44.2491Z" fill="#2999FF"/>
<path d="M23.2021 38.6549C23.0555 38.8015 22.9766 39.0271 22.9766 39.3316C22.9766 39.9181 23.2811 40.2339 23.8337 40.2339C24.3638 40.2339 24.6232 40.0873 24.7586 39.67C24.9052 39.2639 24.7473 38.7 24.4428 38.5421C24.0819 38.3503 23.4503 38.4067 23.2021 38.6549Z" fill="#2999FF"/>
<path d="M36.2064 3.36391C35.6312 3.64588 35.2026 4.11959 34.898 4.81886C34.7063 5.2249 34.6499 5.66476 34.6048 7.0746L34.5371 8.82279L32.2927 9.96194C30.8828 10.6725 29.9241 11.2364 29.7324 11.4507C29.0557 12.1951 29.067 13.4809 29.7437 14.1238C29.9241 14.2929 31.0746 14.9584 32.3039 15.59L34.5371 16.7404L34.6048 18.3082C34.6725 19.6954 34.7176 19.9548 34.9657 20.4624C35.3266 21.1617 36.0259 21.782 36.6575 21.9512C37.0071 22.0527 40.0298 22.0752 48.0151 22.0527L58.8991 22.0188L59.3502 21.7707C59.9367 21.4549 60.354 21.0038 60.636 20.3834C60.8615 19.8872 60.8728 19.6842 60.8728 12.5448C60.8728 4.34516 60.9067 4.75119 60.0608 3.89401C59.2261 3.07067 60.1171 3.12706 47.767 3.12706C36.7252 3.12706 36.6801 3.12706 36.2064 3.36391ZM58.3238 5.04444C58.4817 5.10083 58.696 5.28129 58.8088 5.46175C59.0006 5.74371 59.0118 6.2287 59.0457 12.2064C59.0682 15.7366 59.0457 18.8608 59.0118 19.1315C58.9667 19.4247 58.8314 19.7293 58.6735 19.8872L58.4028 20.1579H47.8234C36.0597 20.1579 36.8605 20.2143 36.6237 19.3909C36.5673 19.1653 36.5109 18.2518 36.5109 17.3607C36.5109 15.9509 36.4883 15.7366 36.2966 15.5449C36.1838 15.4321 34.9657 14.7667 33.5897 14.0674L31.0971 12.7929L32.022 12.2853C32.5408 12.0147 33.7025 11.4169 34.6161 10.9545C35.5184 10.5033 36.3079 10.0634 36.3643 9.9845C36.4094 9.90554 36.4771 8.89046 36.5109 7.74004C36.5673 5.83394 36.5898 5.60837 36.7929 5.3828C36.9169 5.24745 37.1199 5.08955 37.244 5.03316C37.5711 4.90909 57.9742 4.90909 58.3238 5.04444Z" fill="#2999FF"/>
<path d="M40.5725 7.8641C40.1213 8.31524 40.189 9.03708 40.7191 9.38672C40.9559 9.54462 41.7906 9.5559 48.1179 9.53334L55.2573 9.4995L55.4716 9.22882C55.7761 8.85662 55.7536 8.25885 55.4039 7.92049L55.1332 7.63852H47.96C40.9785 7.63852 40.798 7.63852 40.5725 7.8641Z" fill="#2999FF"/>
<path d="M40.6175 11.8568C40.1889 12.2177 40.1551 12.9621 40.5611 13.2892C40.8092 13.4922 41.125 13.5035 48.0163 13.5035H55.2234L55.4489 13.2102C55.7422 12.838 55.7535 12.2628 55.4715 11.9132L55.2572 11.6425L48.0952 11.6087L40.9333 11.5861L40.6175 11.8568Z" fill="#2999FF"/>
<path d="M40.5615 15.8608C40.2006 16.154 40.1894 16.8984 40.5503 17.248L40.8097 17.5074H45.2648H49.7311L49.9454 17.2368C50.2387 16.8758 50.2274 16.1653 49.9341 15.872C49.7198 15.6577 49.5619 15.6465 45.2648 15.6465C41.0804 15.6465 40.8097 15.6577 40.5615 15.8608Z" fill="#2999FF"/>
<path d="M44.1258 25.222C43.1558 25.3799 42.5693 25.5829 41.6783 26.0453C39.7045 27.0717 38.5203 28.8425 38.1932 31.3012C38.0014 32.7449 38.1255 38.1812 38.3736 39.0497C38.6556 40.0422 39.1857 40.9783 39.9301 41.7678L40.5843 42.4671L40.4151 44.1363C40.3249 45.0499 40.2008 45.8281 40.1557 45.8733C40.1106 45.9184 38.5428 46.5725 36.6818 47.3282C34.8209 48.0839 33.0276 48.8621 32.6892 49.0651C31.4711 49.7982 30.456 51.3321 30.2079 52.8322C30.1177 53.3285 30.0838 54.806 30.1064 56.994C30.1402 60.1633 30.1515 60.4115 30.3545 60.637C30.659 60.9754 31.426 60.9641 31.7531 60.6145C32.0012 60.3551 32.0012 60.2874 32.0012 56.9715C32.0012 53.2157 32.0801 52.6405 32.6892 51.7382C32.8809 51.4562 33.2531 51.0727 33.5013 50.8697C34.0088 50.4862 41.0467 47.5651 42.1633 47.2831C43.9228 46.8207 46.2913 46.8545 48.3553 47.3508C49.4719 47.6327 56.5436 50.2719 57.2203 50.6667C57.773 50.9938 58.3031 51.569 58.6189 52.1893C58.9685 52.8886 59.07 53.9262 59.07 57.2873C59.07 60.2761 59.0813 60.434 59.2956 60.6483C59.6001 60.9528 60.3445 60.9528 60.6603 60.637C60.8859 60.4115 60.8859 60.3212 60.852 56.385C60.8182 52.4036 60.8182 52.3472 60.5475 51.7382C60.0061 50.5313 59.1602 49.5163 58.2241 48.9636C57.9647 48.817 56.2165 48.1177 54.333 47.4072C51.8178 46.471 50.893 46.065 50.8366 45.9184C50.7915 45.7943 50.7012 44.9822 50.6223 44.1025L50.4757 42.4897L51.1185 41.7904C51.4682 41.3956 51.9306 40.7302 52.1449 40.2903C52.8216 38.8918 52.8667 38.5421 52.8667 34.6397C52.8667 31.5155 52.8442 31.0418 52.6412 30.2636C52.3254 29.0229 51.8178 28.1206 50.893 27.1958C50.0358 26.3273 48.9643 25.7183 47.7349 25.4025C46.9342 25.1882 44.9266 25.0979 44.1258 25.222ZM46.9116 27.1958C48.9192 27.6244 50.2839 28.8988 50.7915 30.8162C50.9042 31.2223 50.9494 32.2825 50.9494 34.7074C50.9494 37.9331 50.9381 38.0571 50.6787 38.8015C50.3629 39.6925 49.6636 40.6625 49.0094 41.1362L48.547 41.4746H45.5694C42.2084 41.4746 42.2873 41.4971 41.4527 40.5948C40.2459 39.3091 40.0091 38.3504 40.0091 34.7074C40.0091 31.7072 40.1106 30.8952 40.573 29.8914C41.5768 27.7259 44.1822 26.6206 46.9116 27.1958ZM48.5583 43.5837C48.6147 43.6965 48.7049 44.1589 48.7387 44.6213L48.8177 45.4559L48.5019 45.3883C47.2274 45.1401 46.1334 45.0612 44.4867 45.1063C43.4829 45.1401 42.558 45.2078 42.4452 45.2529C42.2422 45.3432 42.2309 45.3093 42.2986 44.5311C42.3325 44.0799 42.4227 43.6401 42.5016 43.5498C42.6031 43.4258 43.1671 43.3919 45.5469 43.3919C48.2086 43.3919 48.4681 43.4145 48.5583 43.5837Z" fill="#2999FF"/>
<path d="M8.68678 33.2862L8.37097 33.5569L8.33714 36.7037C8.29202 40.2903 8.33714 40.6174 8.93491 40.8655C9.37478 41.0459 9.93871 40.9106 10.1192 40.5722C10.1868 40.4482 10.232 38.9481 10.232 36.9179V33.478L9.93871 33.2524C9.54396 32.9366 9.07025 32.9591 8.68678 33.2862Z" fill="#2999FF"/>
</svg>
