<svg width="64" height="64" viewBox="0 0 64 64" fill="none" xmlns="http://www.w3.org/2000/svg">
<g clip-path="url(#clip0_166_2440)">
<path d="M37.0618 0.137527C29.3368 1.11253 23.3993 5.08753 22.1743 10.125C21.9493 11.0375 21.9618 12.9875 22.1868 13.9625C22.5993 15.7 23.9368 17.7625 25.5368 19.15C28.4868 21.6875 32.3243 23.2375 37.2368 23.85L38.9118 24.0625L41.0743 27.4375C42.9493 30.375 43.2868 30.825 43.6368 30.95C44.1368 31.125 44.6868 30.9625 44.8868 30.6C44.9618 30.4625 45.3243 28.9125 45.6993 27.15C46.0618 25.375 46.3993 23.825 46.4243 23.6875C46.4743 23.4875 46.7243 23.375 47.6494 23.1375C49.8244 22.5875 52.1994 21.55 53.9993 20.3375C55.2619 19.4875 57.0744 17.65 57.7369 16.5375C58.5868 15.1 58.9118 14.0375 58.9743 12.4625C58.9994 11.7 58.9618 10.775 58.8869 10.375C58.5494 8.68752 57.5868 6.97503 56.1244 5.50002C53.3743 2.72503 49.1243 0.837526 44.2118 0.187527C42.5993 -0.0124722 38.5618 -0.0499725 37.0618 0.137527ZM43.6243 2.26253C50.2993 3.05003 55.6244 6.37502 56.6994 10.425C56.9494 11.3625 56.9244 12.825 56.6244 13.7625C56.2619 14.9125 55.7369 15.7625 54.6744 16.875C52.7119 18.925 49.7993 20.45 46.3368 21.25C45.6618 21.4125 44.9993 21.625 44.8618 21.7375C44.6618 21.9 44.4868 22.5125 44.0743 24.475C43.7743 25.8625 43.5118 27.0375 43.4743 27.0625C43.4493 27.0875 42.7368 26.025 41.8868 24.6875C41.0368 23.35 40.2618 22.1875 40.1618 22.1125C40.0743 22.025 39.4118 21.9125 38.7118 21.8625C35.9118 21.625 33.5743 21.1 31.3993 20.225C26.7868 18.3375 24.1243 15.3375 24.1243 12.0125C24.1243 10.15 24.8618 8.52503 26.3868 6.98753C29.9868 3.33753 36.8493 1.46253 43.6243 2.26253Z" fill="#2999FF"/>
<path d="M34 8V9H36.5H39V8V7H36.5H34V8Z" fill="#2999FF"/>
<path d="M41 8V9H42H43V8V7H42H41V8Z" fill="#2999FF"/>
<path d="M45 8V9H47.5H50V8V7H47.5H45V8Z" fill="#2999FF"/>
<path d="M31 12V13H37H43V12V11H37H31V12Z" fill="#2999FF"/>
<path d="M45 12V13H47.5H50V12V11H47.5H45V12Z" fill="#2999FF"/>
<path d="M31 16V17H33H35V16V15H33H31V16Z" fill="#2999FF"/>
<path d="M37 16V17H42.5H48V16V15H42.5H37V16Z" fill="#2999FF"/>
<path d="M19.0492 6.50003C15.6992 8.17503 13.3617 10.5625 12.4117 13.275C11.9742 14.4875 11.8742 16.55 12.1742 17.9C12.8242 20.8375 15.1742 23.45 18.9367 25.45C19.5242 25.7625 19.9992 26.0375 19.9992 26.05C19.9992 26.0625 19.7492 27.1875 19.4492 28.55C18.8617 31.1625 18.8492 31.6 19.3742 31.875C19.9992 32.2125 20.3617 32.05 23.6492 29.9625L26.8492 27.925L29.5867 27.975C32.4867 28.0375 34.0242 27.925 36.1867 27.475C37.6242 27.1875 37.9992 26.9375 37.9992 26.2875C37.9992 25.2875 37.4992 25.025 36.1867 25.3C33.6617 25.85 31.2867 26.025 28.8367 25.85C27.9242 25.7875 26.9867 25.725 26.7492 25.7125C26.3867 25.7 25.9117 25.95 24.0117 27.1625C22.7492 27.975 21.6992 28.6125 21.6742 28.6C21.6617 28.575 21.8117 27.8125 22.0117 26.9C22.4992 24.7125 22.5367 24.8 20.4242 23.75C18.5367 22.8125 17.3742 22.0125 16.3117 20.925C14.8492 19.425 14.1367 17.8 14.1367 16C14.1367 14.15 14.8742 12.525 16.4492 10.9375C17.4992 9.87503 18.6492 9.08753 20.4867 8.18753C21.2242 7.81253 21.8742 7.42503 21.9242 7.31253C22.0867 6.88753 21.9992 6.25003 21.7492 6.00003C21.3117 5.56253 20.6992 5.67503 19.0492 6.50003Z" fill="#2999FF"/>
<path d="M13.0625 33C10.7125 33.3125 8.6375 34.8125 7.6375 36.9375C7.1375 37.9875 6.975 38.7625 6.9875 40.075C6.9875 41.975 7.7125 43.725 9.0375 44.9875L9.6125 45.55L8.6375 45.875C7.475 46.2625 5.7875 47.1125 4.9875 47.7C3.65 48.675 2.3375 50.3875 1.675 52C1.35 52.8125 0 59.2375 0 59.9875C0 60.6375 0.2 60.8375 1.1875 61.2C7.8875 63.65 15.2 64.125 22.2375 62.55C24.7 62 27.575 61.0375 27.8375 60.6625C27.925 60.55 28 60.25 28 59.9875C28 59.1375 26.6375 52.75 26.2625 51.8625C25.475 49.975 23.875 48.15 22.1375 47.125C21.1875 46.575 18.925 45.625 18.5625 45.625C18.4 45.625 18.55 45.4 19.0875 44.8375C20.4 43.475 21 41.925 21 39.9125C21 35.65 17.325 32.45 13.0625 33ZM15.25 35.2625C16.5625 35.5625 17.85 36.6375 18.475 37.975C18.775 38.6 18.8125 38.8375 18.8125 40C18.8125 41.1625 18.775 41.4 18.475 42.025C18.0125 43.025 17.1375 43.925 16.1375 44.4125C15.375 44.7875 15.2375 44.8125 14 44.8125C12.8375 44.8125 12.6125 44.775 11.9625 44.475C11.0375 44.0375 9.9625 42.9625 9.525 42.0375C9.225 41.3875 9.1875 41.1625 9.1875 40C9.1875 38.8375 9.225 38.6 9.525 37.975C10.2125 36.5125 11.75 35.3375 13.275 35.1375C13.975 35.0375 14.3375 35.0625 15.25 35.2625ZM16.3875 47.325C20.6375 48.0625 23.525 50.225 24.5375 53.4375C24.7625 54.125 25.7875 59.25 25.725 59.3125C25.625 59.425 22.6625 60.2625 21.375 60.55C18.8125 61.1125 17.05 61.3 14 61.3C10.95 61.3 9.1875 61.1125 6.625 60.55C5.3375 60.2625 2.375 59.425 2.275 59.3125C2.1875 59.225 3.375 53.6375 3.625 52.9625C4.0375 51.8625 5.0375 50.45 5.9125 49.75C8.4875 47.6625 12.6875 46.6875 16.3875 47.325Z" fill="#2999FF"/>
<path d="M49.0625 33C46.7125 33.3125 44.6375 34.8125 43.6375 36.9375C43.1375 37.9875 42.975 38.7625 42.9875 40.075C42.9875 41.975 43.7125 43.725 45.0375 44.9875L45.6125 45.55L44.6375 45.875C43.475 46.2625 41.7875 47.1125 40.9875 47.7C39.65 48.675 38.3375 50.3875 37.675 52C37.35 52.8125 36 59.2375 36 59.9875C36 60.6375 36.2 60.8375 37.1875 61.2C45.4125 64.2125 54.5875 64.2125 62.8125 61.2C63.8 60.8375 64 60.6375 64 59.9875C64 59.1 62.6375 52.7625 62.2375 51.8125C61.475 49.9875 59.8875 48.1625 58.1375 47.125C57.2 46.575 54.975 45.6375 54.575 45.625C54.3875 45.625 54.5125 45.4375 55.0875 44.8375C56.4 43.475 57 41.925 57 39.9125C57 35.65 53.325 32.45 49.0625 33ZM51.25 35.2625C52.5625 35.5625 53.85 36.6375 54.475 37.975C54.775 38.6 54.8125 38.8375 54.8125 40C54.8125 41.1625 54.775 41.4 54.475 42.025C54.0125 43.025 53.1375 43.925 52.1375 44.4125C51.375 44.7875 51.2375 44.8125 50 44.8125C48.8375 44.8125 48.6125 44.775 47.9625 44.475C47.0375 44.0375 45.9625 42.9625 45.525 42.0375C45.225 41.3875 45.1875 41.1625 45.1875 40C45.1875 38.8375 45.225 38.6 45.525 37.975C46.2125 36.5125 47.75 35.3375 49.275 35.1375C49.975 35.0375 50.3375 35.0625 51.25 35.2625ZM52.3875 47.325C56.6375 48.0625 59.525 50.225 60.5375 53.4375C60.7625 54.125 61.7875 59.25 61.725 59.3125C61.625 59.425 58.6625 60.2625 57.375 60.55C54.8125 61.1125 53.05 61.3 50 61.3C46.95 61.3 45.1875 61.1125 42.625 60.55C41.3375 60.2625 38.375 59.425 38.275 59.3125C38.1875 59.225 39.375 53.6375 39.625 52.9625C40.0375 51.8625 41.0375 50.45 41.9125 49.75C44.4875 47.6625 48.6875 46.6875 52.3875 47.325Z" fill="#2999FF"/>
</g>
<defs>
<clipPath id="clip0_166_2440">
<rect width="64" height="64" fill="white"/>
</clipPath>
</defs>
</svg>
