<svg width="32" height="32" viewBox="0 0 32 32" fill="none" xmlns="http://www.w3.org/2000/svg">
<g clip-path="url(#clip0_1_225)">
<path d="M24.4357 13.0632L22.6703 14.8289L21.3396 13.498L23.1051 11.7324C24.9401 9.89709 24.9401 6.91168 23.1051 5.07827C21.27 3.24485 18.285 3.24297 16.4518 5.07827L10.8299 10.7027C8.99482 12.538 8.99482 15.5234 10.8299 17.3569C12.665 19.1903 15.65 19.1922 17.4832 17.3569L18.8138 18.6877C17.5283 19.9733 15.8439 20.6133 14.1556 20.6133C12.4673 20.6133 10.7828 19.9714 9.49923 18.6877C6.93202 16.1202 6.93202 11.9394 9.49923 9.37192L15.1211 3.74933C17.6902 1.17991 21.8666 1.17991 24.4357 3.74933C27.0048 6.31497 27.0048 10.4957 24.4357 13.0632ZM11.3719 15.1225L11.1273 15.3653L12.4542 16.6999L12.7007 16.4552C14.5358 14.6199 17.5208 14.6199 19.354 16.4552C21.1872 18.2905 21.1891 21.2759 19.354 23.1093L13.6644 28.8034C11.8293 30.6387 8.84425 30.6387 7.01107 28.8034C5.17789 26.9682 5.176 23.9827 7.01107 22.1493L9.00235 20.1559L7.67169 18.8251L5.68041 20.8185C3.1132 23.386 3.1132 27.5667 5.68041 30.1343C6.9659 31.4199 8.6504 32.0599 10.3387 32.0599C12.0269 32.0599 13.7114 31.418 14.9969 30.1343L20.6865 24.442C23.2538 21.8745 23.2538 17.6938 20.6865 15.1263C18.1156 12.5531 13.9373 12.5587 11.3719 15.1225Z" fill="#2999FF"/>
</g>
<defs>
<clipPath id="clip0_1_225">
<rect width="31.996" height="32" fill="white"/>
</clipPath>
</defs>
</svg>
