<svg width="32" height="32" viewBox="0 0 32 32" fill="none" xmlns="http://www.w3.org/2000/svg">
<g clip-path="url(#clip0_1_231)">
<path d="M17.8826 20.6532C17.8826 21.3421 17.4929 21.9181 16.9414 22.2456V26.3002H15.059V22.2475C14.5056 21.92 14.1178 21.344 14.1178 20.6532C14.1178 19.6141 14.9593 18.7708 16.0002 18.7708C17.0374 18.7708 17.8826 19.6122 17.8826 20.6532ZM28.1696 15.9247V29.2517C28.1696 30.8085 26.9028 32.0753 25.3461 32.0753H6.54326C4.98655 32.0753 3.71973 30.8085 3.71973 29.2517V15.9247C3.71973 14.368 4.98655 13.1012 6.54326 13.1012H6.58843V9.35903C6.58843 4.16938 10.8106 -0.0527344 16.0002 -0.0527344C21.1898 -0.0527344 25.412 4.16938 25.412 9.35903V13.1087C26.9386 13.1426 28.1696 14.3906 28.1696 15.9247ZM8.47079 13.1012H23.5296V9.35903C23.5296 5.20656 20.1527 1.82962 16.0002 1.82962C11.8477 1.82962 8.47079 5.20656 8.47079 9.35903V13.1012ZM26.2873 15.9247C26.2873 15.4277 25.8976 15.0324 25.412 14.9967V15.0042H6.58843V14.9835H6.54326C6.02561 14.9835 5.60208 15.4052 5.60208 15.9247V29.2517C5.60208 29.7713 6.02561 30.1929 6.54326 30.1929H25.3461C25.8637 30.1929 26.2873 29.7713 26.2873 29.2517V15.9247Z" fill="#2999FF"/>
</g>
<defs>
<clipPath id="clip0_1_231">
<rect width="32" height="32" fill="white"/>
</clipPath>
</defs>
</svg>
