<svg width="62" height="41" viewBox="0 0 62 41" fill="none" xmlns="http://www.w3.org/2000/svg">
<path d="M10.6403 0.182491C7.08107 1.17925 4.96546 4.73912 5.62503 8.60967C6.03571 11.0174 7.34241 13.6453 8.84823 15.0433C9.20913 15.3799 9.8687 15.833 10.3167 16.066C11.0883 16.4673 11.2376 16.4932 12.395 16.4932C13.515 16.4932 13.7141 16.4543 14.3613 16.1178C15.2324 15.6776 16.5391 14.4479 17.1862 13.4511C18.4183 11.5741 19.0654 9.63233 19.1401 7.56113C19.2396 5.1922 18.6796 3.61291 17.1738 2.04657C16.2653 1.10158 15.0333 0.38961 13.851 0.130711C12.9675 -0.0634632 11.4243 -0.0375729 10.6403 0.182491ZM13.2288 2.20191C15.2324 2.64204 16.7507 4.28605 17.0991 6.40903C17.4974 8.7909 15.6555 12.8168 13.6021 14.0595C12.9052 14.4867 11.9968 14.5385 11.3123 14.176C10.0927 13.5547 8.84823 11.8977 8.11399 9.89122C7.70331 8.80385 7.67842 8.62262 7.66598 7.2375C7.66598 5.85239 7.69087 5.69705 8.02688 4.97213C8.674 3.59997 9.78159 2.66793 11.2501 2.25369C12.059 2.03362 12.395 2.02068 13.2288 2.20191Z" fill="#2999FF"/>
<path d="M47.9248 0.195436C45.5354 0.842686 43.6189 2.83621 43.0091 5.29576C42.5486 7.121 42.9469 9.83945 43.9798 11.9624C44.8758 13.8265 46.2945 15.4317 47.6385 16.1178C48.2981 16.4543 48.4848 16.4932 49.667 16.4932C50.8866 16.4932 51.0235 16.4673 51.7204 16.0789C53.9356 14.875 55.8272 11.8459 56.3748 8.60967C57.0468 4.72618 54.8192 1.06275 51.2724 0.182491C50.2768 -0.050518 48.8208 -0.050518 47.9248 0.195436ZM51.3222 2.44786C52.7285 2.99155 53.948 4.38961 54.2716 5.8265C54.9187 8.60967 53.0769 12.9074 50.7124 14.1113C49.7915 14.5903 49.219 14.5644 48.3479 14.0336C46.3443 12.8168 44.5149 8.75207 44.9007 6.40903C45.162 4.80385 46.0829 3.47052 47.4145 2.71971C48.7088 2.00773 49.9533 1.91712 51.3222 2.44786Z" fill="#2999FF"/>
<path d="M29.2823 7.10766C28.0627 7.44423 27.2538 7.92319 26.2582 8.89407C23.7444 11.3407 23.4706 15.2759 25.5364 19.263C27.7516 23.5219 31.2984 24.7128 34.2602 22.1627C35.5047 21.1012 36.7492 19.0818 37.3216 17.2047C38.3545 13.8261 37.8568 11.0818 35.8034 8.98468C34.7705 7.92319 33.9989 7.45717 32.6673 7.10766C31.4726 6.78404 30.4646 6.78404 29.2823 7.10766ZM32.9908 9.51543C34.422 10.2274 35.4425 11.5866 35.7287 13.1918C36.1892 15.729 34.2602 19.8973 32.0948 21.0365C30.9748 21.6319 29.8672 21.3212 28.7098 20.0785C28.0005 19.3148 27.7516 18.9523 27.2165 17.852C25.7604 14.9005 25.8973 12.3374 27.6023 10.551C28.6476 9.46365 29.6556 9.04941 31.1241 9.08824C32.0202 9.11413 32.3064 9.17886 32.9908 9.51543Z" fill="#2999FF"/>
<path d="M6.03572 16.8167C3.45965 17.1792 1.24448 19.1468 0.360899 21.8653C0.0995582 22.6678 0.0871135 22.9656 0.0373343 27.9753L0 33.2568H8.46245H16.9373V32.1565V31.0562H9.5327H2.12806V27.1986C2.12806 22.9397 2.19028 22.4737 2.89963 21.3216C3.40987 20.4801 4.13167 19.8329 5.10236 19.3669C5.81171 19.0174 6.0855 18.9526 7.16819 18.9138L8.41267 18.875L9.8936 21.8264C10.7025 23.4445 11.4865 24.9073 11.6234 25.0627C11.8225 25.2957 12.0092 25.3604 12.4572 25.3604H13.0421L14.66 22.15L16.2653 18.9526L17.5098 18.9656C18.4805 18.9656 18.8912 19.0303 19.4636 19.2633C20.3721 19.6387 21.517 20.7132 21.9899 21.6711C22.189 22.0594 22.4006 22.3831 22.4628 22.3831C22.7491 22.3831 24.2798 21.8005 24.2798 21.697C24.2798 21.6322 24.1055 21.1921 23.8815 20.7132C23.3589 19.6128 22.0148 18.163 20.9819 17.6322C19.7125 16.9591 19.0281 16.8038 16.9373 16.7261L15.0084 16.6614L13.7017 19.328C12.731 21.3216 12.3577 21.9429 12.2706 21.8135C12.1959 21.7229 11.5861 20.5319 10.9016 19.1598L9.65715 16.6873L8.226 16.7002C7.44198 16.7132 6.45884 16.7649 6.03572 16.8167Z" fill="#2999FF"/>
<path d="M43.4448 16.8167C41.8643 17.0238 40.5701 17.7099 39.3878 18.9397C38.5913 19.7682 37.7202 21.2051 37.7202 21.6711C37.7202 21.8005 39.2136 22.3831 39.5372 22.3831C39.5994 22.3831 39.8109 22.0724 39.9976 21.684C40.4705 20.739 41.3541 19.8588 42.3248 19.3669C43.0715 18.9785 43.2208 18.9526 44.428 18.9526H45.7347L47.2529 21.9947C48.0992 23.6646 48.8832 25.1015 48.9952 25.1921C49.1196 25.2827 49.4681 25.3604 49.7792 25.3604L50.3517 25.3475L51.9695 22.1242L53.5749 18.8879H54.6078C56.8603 18.8879 58.4906 19.9365 59.4239 21.9947L59.8097 22.8361L59.847 26.9397L59.8844 31.0562H52.4797H45.0626V32.1565V33.2568H53.5375H62L61.9626 27.9753C61.9129 23.3539 61.888 22.6161 61.6889 21.9947C60.9297 19.574 59.1501 17.7229 56.8852 17.0109C56.4372 16.8814 55.5163 16.7779 54.2718 16.7261L52.3428 16.6484L51.0486 19.2245C50.3517 20.6484 49.7294 21.8394 49.6796 21.8911C49.6423 21.9429 49.0201 20.8038 48.2983 19.3669L46.9791 16.752L45.5604 16.739C44.7764 16.7261 43.8182 16.7649 43.4448 16.8167Z" fill="#2999FF"/>
<path d="M24.0556 23.8588C21.7782 24.4413 19.7746 26.3701 19.0279 28.7132C18.7666 29.5287 18.7541 29.8135 18.7043 34.8361L18.667 40.1177H30.9873H43.3201V35.2245C43.3201 32.3119 43.2703 30.0206 43.1832 29.5546C42.8348 27.561 41.3787 25.5157 39.624 24.5449C38.3795 23.8717 37.4711 23.6776 35.4177 23.6776H33.663L32.3687 26.2666C31.6469 27.6905 31.0371 28.8555 30.9998 28.8555C30.9624 28.8555 30.3526 27.6905 29.6433 26.2666L28.3615 23.6776L26.5321 23.6905C25.5241 23.6905 24.4289 23.7682 24.0556 23.8588ZM28.6602 28.985C29.5313 30.7326 30.2655 32.1954 30.278 32.2471C30.3029 32.3119 30.6389 32.3119 31.0371 32.2471L31.7465 32.1565L33.3518 28.985L34.9572 25.8135L36.1146 25.8264C37.944 25.8653 39.3378 26.5643 40.296 27.9753C41.1547 29.218 41.2045 29.5416 41.2045 34.0335V38.0465H30.9998H20.7826L20.8199 33.8653L20.8573 29.697L21.2555 28.8297C21.7409 27.7682 22.5995 26.8361 23.5453 26.3572C24.404 25.917 25.1009 25.7617 26.2085 25.7876L27.0797 25.8135L28.6602 28.985Z" fill="#2999FF"/>
</svg>
