<svg width="36" height="36" viewBox="0 0 36 36" fill="none" xmlns="http://www.w3.org/2000/svg">
<path d="M35.1667 24.0149C35.1667 18.9862 31.7783 14.5926 27.0002 13.2687C26.6998 6.269 20.9123 0.666748 13.84 0.666748C6.57608 0.666748 0.666656 6.57617 0.666656 13.8401C0.666656 16.2074 1.29679 18.5124 2.49336 20.536L0.715088 26.9647L7.14409 25.1867C9.00423 26.2867 11.1026 26.9063 13.2683 26.9997C14.592 31.7781 18.9858 35.1667 24.0148 35.1667C26.0221 35.1667 27.9741 34.6322 29.6892 33.6164L35.118 35.1181L33.6163 29.6893C34.6321 27.9742 35.1667 26.0222 35.1667 24.0149ZM7.46311 23.001L3.61439 24.0657L4.67909 20.217L4.43641 19.8374C3.29274 18.0481 2.68814 15.9742 2.68814 13.8401C2.68814 7.69088 7.69079 2.68823 13.84 2.68823C19.9892 2.68823 24.9919 7.69088 24.9919 13.8401C24.9919 19.9893 19.9892 24.9919 13.84 24.9919C11.7059 24.9919 9.63226 24.3873 7.84266 23.2437L7.46311 23.001ZM32.2189 32.219L29.363 31.4288L28.9817 31.6771C27.5032 32.6375 25.7854 33.1453 24.0148 33.1453C20.0624 33.1453 16.5893 30.5897 15.3587 26.9253C21.4111 26.2275 26.2274 21.4112 26.9254 15.3586C30.5896 16.5894 33.1452 20.0625 33.1452 24.0149C33.1452 25.7855 32.6374 27.5033 31.677 28.9817L31.4288 29.3631L32.2189 32.219Z" fill="#2999FF"/>
</svg>
