<svg width="48" height="48" viewBox="0 0 48 48" fill="none" xmlns="http://www.w3.org/2000/svg">
<path d="M46.1763 7.89044C45.8582 6.14566 45.061 4.5233 43.8708 3.19776C43.8685 3.1952 43.8663 3.19252 43.864 3.18996C43.2544 2.50162 42.2442 1.55526 40.8938 0.955566L40.8631 0.941937C39.5598 0.316852 38.1612 0 36.7064 0C34.5548 0 32.5197 0.694513 30.8211 2.00863C30.8194 2.00992 30.8118 2.01597 30.8097 2.01749C29.3493 3.15781 28.3856 4.78727 28.2663 4.99485C28.261 5.00394 28.2557 5.01314 28.2507 5.02234C27.4846 6.42698 27.0796 8.01916 27.0796 9.62684C27.0796 9.9607 27.0971 10.2986 27.1318 10.6311C27.1641 10.9418 27.35 11.2155 27.6267 11.3603C27.8019 11.452 27.985 11.5283 28.1731 11.5886C28.9231 13.8842 30.5611 15.7201 32.6434 16.7525C31.7508 17.2085 30.9491 17.8113 30.2556 18.5486C29.903 18.9234 29.9211 19.5132 30.2961 19.8658C30.6709 20.2183 31.2607 20.2003 31.6133 19.8254C31.9466 19.471 32.3113 19.1563 32.7047 18.8832C33.2689 20.4816 34.7229 21.6526 36.3767 21.6526H36.5158C38.1724 21.6526 39.625 20.3976 40.1559 18.6995C42.1237 19.9332 43.3828 22.1311 43.3828 24.4822V34.1624L34.9065 39.6625C34.4747 39.9426 34.3518 40.5197 34.632 40.9514C34.8105 41.2265 35.1095 41.3762 35.4146 41.3762C35.5885 41.3762 35.7643 41.3276 35.921 41.2259L44.8219 35.4503C45.0867 35.2785 45.2466 34.9842 45.2466 34.6685V24.4822C45.2466 21.1819 43.4042 18.2238 40.4924 16.7477C43.2498 15.3715 45.1998 12.594 45.3908 9.35891C45.6538 9.12046 45.8825 8.8403 46.0654 8.52519C46.1769 8.33368 46.2161 8.10851 46.1763 7.89044ZM36.5159 19.7888H36.3768C35.2615 19.7888 34.3193 18.7078 34.3193 17.4282C34.3193 17.4122 34.3189 17.3964 34.3181 17.3805C35.0407 17.5705 35.7965 17.671 36.5715 17.671C37.2338 17.671 37.8802 17.5972 38.5019 17.4573C38.429 18.7172 37.5323 19.7888 36.5159 19.7888ZM36.5714 15.8072C33.7613 15.8072 31.2697 14.1333 30.1782 11.6241C31.4721 11.258 32.4619 10.1602 32.6707 8.80815C33.2267 8.87956 33.7902 8.91555 34.3555 8.91555C36.251 8.91555 38.0771 8.51821 39.7125 7.75729C40.134 9.20468 41.4727 10.2654 43.0544 10.2654C43.1697 10.2654 43.2843 10.2596 43.3979 10.2482C42.7408 13.4144 39.921 15.8072 36.5714 15.8072ZM43.0544 8.40172C42.1633 8.40172 41.4384 7.67703 41.4384 6.78612V6.2675C41.4384 5.9284 41.2542 5.61609 40.9574 5.45196C40.6605 5.28771 40.298 5.29784 40.011 5.47829C38.3711 6.50771 36.4155 7.05183 34.3554 7.05183C33.5497 7.05183 32.7494 6.96691 31.9768 6.7994C31.7015 6.73964 31.4138 6.80778 31.1943 6.98473C30.975 7.16168 30.8474 7.42833 30.8474 7.71011V8.27544C30.8474 9.16624 30.1226 9.89104 29.2317 9.89104C29.1706 9.89104 29.1103 9.88766 29.0507 9.88102C29.0368 9.87892 29.0229 9.87718 29.0091 9.87578C28.9882 9.87298 28.9676 9.8696 28.947 9.86599C28.9445 9.78608 28.9433 9.7064 28.9433 9.62696C28.9433 8.33392 29.2677 7.05393 29.8816 5.92456C29.884 5.92001 29.8866 5.91559 29.8886 5.91221C29.8965 5.89788 30.7382 4.43861 31.9552 3.48771C31.9577 3.48573 31.9608 3.4834 31.9614 3.48293C33.3306 2.42369 34.9714 1.86384 36.7064 1.86384C37.88 1.86384 39.0074 2.11907 40.0571 2.62242C40.0753 2.63116 40.1022 2.64339 40.1373 2.65888C41.1738 3.11925 41.9695 3.86432 42.4576 4.4131C42.463 4.41939 42.4684 4.42557 42.474 4.43186C43.3535 5.40769 43.9681 6.58331 44.2649 7.8513C43.9601 8.19658 43.5193 8.40172 43.0544 8.40172ZM28.6342 32.2453C30.7459 31.0027 32.1664 28.7057 32.1664 26.0834C32.1664 24.9033 31.8787 23.789 31.37 22.8071C31.3517 22.7658 31.3308 22.7266 31.3075 22.6893C30.0977 20.4581 27.7341 18.9394 25.0224 18.9394C22.3102 18.9394 19.9462 20.4585 18.7366 22.6908C18.714 22.7272 18.6937 22.7655 18.6758 22.8056C18.1664 23.7878 17.8786 24.9026 17.8786 26.0834C17.8786 28.7052 19.2984 31.0018 21.4095 32.2445C18.7963 33.5954 17.141 36.277 17.141 39.2447V42.6437C17.141 42.9623 17.3037 43.2587 17.5724 43.4299L24.5221 47.8542C24.6748 47.9513 24.8486 47.9999 25.0226 47.9999C25.1954 47.9999 25.3683 47.9519 25.5203 47.8558L32.4864 43.4547C32.7581 43.2831 32.9221 42.9837 32.9206 42.6624L32.9041 39.2403C32.8899 36.2656 31.2364 33.5929 28.6342 32.2453ZM25.0224 20.8032C26.6446 20.8032 28.0979 21.5383 29.0673 22.6929C27.8116 23.0528 26.4344 23.2404 25.0227 23.2404C23.6105 23.2404 22.2332 23.0528 20.9776 22.6929C21.947 21.5383 23.4004 20.8032 25.0224 20.8032ZM19.7423 26.0834C19.7423 25.478 19.8447 24.8959 20.0332 24.3538C21.571 24.8464 23.2774 25.1043 25.0227 25.1043C26.7675 25.1043 28.4737 24.8464 30.0117 24.3538C30.2002 24.8959 30.3026 25.478 30.3026 26.0834C30.3026 28.9948 27.934 31.3635 25.0224 31.3635C22.111 31.3635 19.7423 28.9948 19.7423 26.0834ZM26.6766 33.0341C26.5601 33.9157 25.7868 34.5116 25.0872 34.5116H24.9737C24.2328 34.5116 23.4099 33.8849 23.3033 33.0182C23.854 33.1548 24.43 33.2273 25.0223 33.2273C25.5915 33.2273 26.1455 33.1604 26.6766 33.0341ZM25.0244 45.9646L19.0047 42.1323V39.2449C19.0047 37.1957 20.0401 35.3246 21.716 34.2219C22.2983 35.5507 23.671 36.3755 24.9737 36.3755H25.0872C26.4936 36.3755 27.7368 35.4602 28.2738 34.1886C29.974 35.2848 31.0303 37.1705 31.0402 39.2493L31.0542 42.155L25.0244 45.9646ZM18.3306 20.9498C18.6022 20.5126 18.468 19.9379 18.031 19.6663C17.7472 19.4899 17.4529 19.33 17.151 19.1876C18.3026 18.5989 19.3213 17.7556 20.13 16.7008C20.463 16.8164 20.8205 16.8793 21.1924 16.8793C22.9832 16.8793 24.4401 15.4223 24.4401 13.6315V11.3156C24.4401 8.37166 23.3155 5.58348 21.2736 3.46487C19.2374 1.35245 16.5039 0.125343 13.5765 0.00955217C13.5763 0.00955217 13.5759 0.00955217 13.5757 0.00955217C13.3213 -0.000232979 13.0844 -0.00256278 12.8516 0.00314523C9.93723 0.0735051 7.18819 1.25308 5.11083 3.3245C2.98104 5.44811 1.80811 8.28616 1.80811 11.3157V13.6316C1.80811 15.4224 3.26504 16.8794 5.05596 16.8794C5.4278 16.8794 5.78519 16.8166 6.11811 16.701C7.00891 17.8629 8.15471 18.7681 9.45229 19.3592C6.57673 20.8715 4.79817 23.7989 4.79817 27.0406V34.6688C4.79817 34.9845 4.95799 35.2787 5.22289 35.4505L13.6771 40.9362C13.8338 41.0379 14.0096 41.0864 14.1835 41.0864C14.4886 41.0864 14.7878 40.9366 14.9661 40.6617C15.2463 40.2299 15.1234 39.6528 14.6917 39.3728L6.66201 34.1626V27.0406C6.66201 24.8843 7.66603 22.9046 9.34803 21.627C9.92489 23.301 11.4062 24.5587 13.044 24.5587H13.1831C14.9619 24.5587 16.3817 22.9486 16.8817 21.1498C16.9372 21.1822 16.9923 21.2154 17.047 21.2493C17.4843 21.5212 18.0589 21.3868 18.3306 20.9498ZM7.36083 7.92865C6.75834 8.9519 6.43986 10.1231 6.43986 11.3157V13.6316C6.43986 14.0731 6.23204 14.467 5.90902 14.7206C5.88129 14.7386 5.85485 14.758 5.82969 14.7785C5.6087 14.9282 5.34229 15.0155 5.05584 15.0155C4.29272 15.0155 3.67194 14.3948 3.67194 13.6316V11.3156C3.67194 6.14193 7.72393 1.99139 12.8962 1.86628C13.0896 1.86151 13.2882 1.8636 13.5035 1.87188C18.5909 2.07352 22.5762 6.22161 22.5762 11.3156V13.6315C22.5762 14.3947 21.9553 15.0154 21.1921 15.0154C20.9057 15.0154 20.6392 14.9279 20.4181 14.7783C20.393 14.7579 20.3667 14.7386 20.3391 14.7206C20.0161 14.467 19.8081 14.073 19.8081 13.6315V11.3156C19.8081 8.02615 17.3576 5.18357 14.108 4.70351C13.8526 4.66554 13.5929 4.73566 13.391 4.89665C13.1892 5.05764 13.063 5.29505 13.0427 5.55249C12.9916 6.2039 12.8735 6.84623 12.6907 7.46956H8.16379C7.83378 7.46956 7.52822 7.64418 7.36083 7.92865ZM13.1831 22.6949H13.044C11.9905 22.6949 10.9564 21.416 10.9564 20.1128C10.9564 20.0324 10.946 19.9533 10.9262 19.8775C11.634 20.0575 12.3711 20.1512 13.1242 20.1512C13.8371 20.1512 14.5358 20.0671 15.2087 19.9056C15.1454 21.2607 14.1198 22.6949 13.1831 22.6949ZM13.1242 18.2874C10.9521 18.2874 8.94742 17.2985 7.63039 15.6093C8.05231 15.0612 8.30358 14.3751 8.30358 13.6315V11.3156C8.30358 10.6291 8.44966 9.95289 8.729 9.3334H13.3633C13.7534 9.3334 14.1022 9.09052 14.2375 8.72451C14.4704 8.0943 14.6462 7.44417 14.7632 6.78204C16.629 7.46118 17.9444 9.26828 17.9444 11.3156V13.6315C17.9444 14.3751 18.1957 15.0612 18.6177 15.6093C17.3008 17.2986 15.2962 18.2874 13.1242 18.2874Z" fill="#2999FF"/>
</svg>
