<svg width="64" height="64" viewBox="0 0 64 64" fill="none" xmlns="http://www.w3.org/2000/svg">
<path d="M27.7639 6.34118L27.3757 6.68235L27.3404 10.1647L27.3051 13.6471L25.7169 14.7176C23.9404 15.9059 23.6581 16.2588 23.9051 16.9882C23.9875 17.2353 25.2816 18.6118 27.8228 21.1529L31.6228 24.9412H32.1404H32.6581L36.5522 21.0588L40.4345 17.1765V16.6588C40.4345 15.9765 40.2581 15.7882 38.4228 14.5765L36.9639 13.6118V10.3529C36.9639 8.32941 36.9169 6.95294 36.8345 6.72941C36.5875 6 36.5639 6 32.1522 6H28.1404L27.7639 6.34118ZM34.4934 11.6C34.4934 13.3294 34.5404 14.8118 34.5992 14.9294C34.6698 15.0471 35.2698 15.5059 35.9522 15.9529C36.6345 16.4 37.1992 16.7882 37.1992 16.8235C37.1992 16.8588 36.0581 18.0235 34.6698 19.4118L32.1404 21.9412L29.5992 19.4L27.0581 16.8588L28.3522 15.9647C29.0581 15.4706 29.6698 14.9765 29.7169 14.8706C29.7522 14.7765 29.7875 13.2824 29.7875 11.5765V8.47059H32.1404H34.4934V11.6Z" fill="#2999FF"/>
<path d="M17.9521 21.3412C17.505 21.7882 17.4344 22.2588 17.7168 22.8C17.8109 22.9765 18.705 23.9294 19.705 24.9059L21.5285 26.7059H22.0815C22.5285 26.7059 22.6932 26.6471 22.9756 26.3647C23.2579 26.0824 23.3168 25.9177 23.3168 25.4706C23.3168 24.9177 23.3168 24.9059 21.705 23.2706C20.8109 22.3529 19.8697 21.4588 19.6226 21.2824C18.9756 20.8 18.4697 20.8235 17.9521 21.3412Z" fill="#2999FF"/>
<path d="M43.0001 22.9765C41.0001 24.9765 40.9648 25.0118 40.9648 25.5177C40.9648 25.9177 41.0354 26.0941 41.306 26.3647C41.5884 26.6471 41.7531 26.7059 42.2119 26.7059H42.7766L44.7531 24.7294C46.7295 22.7647 46.7295 22.7529 46.7295 22.2353C46.7178 21.4353 46.2237 20.9412 45.4119 20.9412C45.0707 20.9412 44.8001 21.1647 43.0001 22.9765Z" fill="#2999FF"/>
<path d="M14.7869 28.6353C14.234 29.1882 14.3281 30.2471 14.9634 30.5882C15.634 30.9412 18.4575 31.8824 18.8693 31.8824C19.5281 31.8824 20.0222 31.3882 20.0222 30.7176C20.0222 29.9294 19.6458 29.6471 17.6928 28.9529C15.7869 28.2706 15.2105 28.2118 14.7869 28.6353Z" fill="#2999FF"/>
<path d="M46.5068 28.9882C44.5774 29.6941 44.2598 29.9412 44.2598 30.7176C44.2598 31.3882 44.7539 31.8824 45.4127 31.8824C45.8245 31.8824 48.648 30.9412 49.3186 30.5882C49.9539 30.2471 50.048 29.1882 49.4951 28.6353C49.0598 28.2 48.4598 28.2706 46.5068 28.9882Z" fill="#2999FF"/>
<path d="M30.0235 29.6471C28.3882 29.8588 26.9882 30.5765 25.8353 31.7882C25 32.6588 24.5765 33.3412 24.1647 34.5059C23.8706 35.3176 23.8588 35.4706 23.8471 37.8235C23.8471 39.9059 23.8824 40.4118 24.0588 41C24.5059 42.4471 25.3765 43.7882 26.3647 44.5647L26.9294 45.0235L23.0941 46.9412L19.2471 48.8588L18.5176 48.4824L17.7765 48.1059L18.3647 47.4588C19.4353 46.2941 19.9059 44.9412 19.9059 43.0588C19.9059 41.0235 19.4 39.7176 18.1529 38.4588C16.8471 37.1412 15.6824 36.7059 13.5529 36.7059C11.3529 36.7059 10.2 37.1294 8.89412 38.4118C7.68235 39.6118 7.08235 41.1412 7.08235 43.0588C7.08235 44.8353 7.62353 46.3412 8.67059 47.5059L9.21176 48.1059L6.38824 49.5176C4.83529 50.2941 3.38824 51.0941 3.17647 51.2824C2.95294 51.4706 2.62353 51.9176 2.42353 52.2588C2.08235 52.8824 2.08235 52.8941 2.04706 55.0824L2 57.2941L2.35294 57.6471L2.70588 58H32.1176H61.5294L61.9059 57.6824L62.2706 57.3765L62.2353 55.1294C62.2 52.8941 62.2 52.8824 61.8588 52.2588C61.6588 51.9176 61.3294 51.4706 61.1059 51.2824C60.8941 51.0941 59.4471 50.2941 57.8941 49.5176L55.0706 48.1059L55.6 47.5176C56.7647 46.2235 57.3059 44.4235 57.1412 42.4118C56.9294 39.6471 55.2471 37.5294 52.7882 36.8824C51.8471 36.6353 49.5647 36.6471 48.7176 36.8941C47.6824 37.2 46.7882 37.7412 46.0471 38.5176C44.8353 39.7765 44.3765 41.0353 44.3765 43.1176C44.3765 45.0235 44.8353 46.3294 45.9176 47.4706L46.4824 48.0706L45.7294 48.4471L44.9647 48.8235L41.1529 46.9176L37.3529 45.0118L37.8941 44.5882C38.8941 43.8 39.7765 42.4353 40.2235 41C40.4 40.4118 40.4353 39.9059 40.4353 37.8235C40.4235 35.4706 40.4118 35.3176 40.1176 34.5059C39.6941 33.3412 39.2824 32.6588 38.4471 31.7765C37.6 30.9059 36.5176 30.2353 35.3765 29.8824C34.7176 29.6824 34.1647 29.6235 32.6706 29.5882C31.6353 29.5647 30.4471 29.5882 30.0235 29.6471ZM33.8353 32.1059C35.9294 32.3765 37.5176 33.9294 37.9176 36.0706C38.0941 37.0353 37.9882 39.7765 37.7412 40.5529C37.3529 41.7647 36.0824 43.0471 34.8235 43.4941C33.9176 43.8 30.3647 43.8 29.4588 43.4941C28.2 43.0471 26.9294 41.7647 26.5412 40.5529C26.2824 39.7529 26.1765 36.8824 26.3765 35.9647C26.7882 33.9294 28.4235 32.3647 30.3647 32.1176C31.3176 31.9882 32.8941 31.9882 33.8353 32.1059ZM15.4118 39.5294C16.2118 39.9412 16.7647 40.4941 17.1294 41.2824C17.3294 41.7294 17.3765 42.0471 17.3765 43.0588C17.3765 44.1765 17.3412 44.3647 17.0471 44.9647C16.6471 45.7882 15.9059 46.4588 15.0941 46.7529C14.6118 46.9176 14.2471 46.9529 13.2824 46.9176C12.2 46.8824 12.0118 46.8471 11.4353 46.5176C10.6941 46.1059 10.0118 45.2824 9.78824 44.5529C9.23529 42.7176 9.8 40.6588 11.0824 39.8118C11.8235 39.3176 12.3529 39.1882 13.5647 39.1765C14.5882 39.1765 14.7529 39.2118 15.4118 39.5294ZM52.8471 39.6C53.6 40.0235 54.2824 40.8588 54.5176 41.6353C54.7176 42.3294 54.7176 43.7882 54.5176 44.4824C54.2824 45.2588 53.6 46.0941 52.8471 46.5176C52.2588 46.8471 52.0824 46.8824 50.9529 46.9176C49.7882 46.9647 49.6471 46.9412 48.9765 46.6471C48.1647 46.2824 47.5294 45.6588 47.1529 44.8353C46.8 44.0588 46.7882 42.0706 47.1529 41.2824C47.5294 40.4824 48.1176 39.8824 48.9059 39.5059C49.5765 39.1765 49.6824 39.1647 50.9059 39.2C52.1059 39.2353 52.2471 39.2588 52.8471 39.6ZM39.1765 48.7529C41.9412 50.1412 44.3176 51.3882 44.4588 51.5412C44.8824 52 44.9882 52.4588 45.0588 54.0235L45.1176 55.5294H32.1529H19.2V54.0824C19.2 52.5059 19.3529 51.9647 19.9529 51.4118C20.1294 51.2471 22.4588 50.0235 25.1176 48.6824L29.9647 46.2471L32.0588 46.2353H34.1412L39.1765 48.7529ZM16.0588 50.0118C16.7176 50.3412 17.2706 50.6235 17.2824 50.6353C17.2941 50.6353 17.1765 51.0118 17.0118 51.4706C16.7765 52.1765 16.7294 52.5176 16.7294 53.9059V55.5294H10.6118H4.49412V54.6471C4.49412 53.1882 4.35294 53.3176 8.47059 51.2471L12.0824 49.4235L13.4706 49.4118H14.8471L16.0588 50.0118ZM55.6588 51.2235C58.0471 52.4235 59.3765 53.1529 59.5412 53.3647C59.7412 53.6235 59.7882 53.8353 59.7882 54.6V55.5294H53.6824H47.5765L47.5294 53.7294C47.4824 52.2588 47.4353 51.8235 47.2235 51.3059C47.0824 50.9529 46.9765 50.6471 47 50.6353C47.0118 50.6235 47.5529 50.3529 48.2 50.0235L49.3765 49.4235H50.7059L52.0235 49.4118L55.6588 51.2235Z" fill="#2999FF"/>
</svg>
