<svg width="64" height="64" viewBox="0 0 64 64" fill="none" xmlns="http://www.w3.org/2000/svg">
<path d="M21.7678 4.03682C21.4611 4.1135 20.8148 4.54071 20.53 4.84743C20.3985 4.98983 20.1904 5.32941 20.0699 5.60326C19.8508 6.07429 19.8398 6.30432 19.8398 10.5107C19.8398 14.1146 19.8727 14.9909 19.9932 15.2976C20.4642 16.404 21.3734 17.0065 22.7098 17.0832L23.5642 17.1379V20.0627C23.5642 22.8122 23.5752 23.0093 23.7833 23.2722C24.0462 23.6118 24.4406 23.7104 24.8459 23.568C25.0102 23.5023 26.5876 22.0235 28.3293 20.2818L31.506 17.116L36.8187 17.0832L42.1314 17.0503L42.712 16.7326C43.0187 16.5574 43.4131 16.2507 43.5664 16.0425C44.158 15.2648 44.158 15.2648 44.158 10.5107C44.158 6.30432 44.147 6.07429 43.9279 5.60326C43.665 5.01174 43.3802 4.69407 42.7887 4.29972L42.3505 4.01492L32.1632 4.00396C26.5657 3.99301 21.8773 4.00396 21.7678 4.03682ZM41.9343 6.17287L42.1862 6.40291V10.434C42.1862 12.6468 42.1534 14.5418 42.1205 14.6404C41.9343 15.1114 41.7261 15.1333 36.03 15.1333H30.6406L28.0992 17.6747L25.5469 20.2051L25.5141 17.9376L25.4812 15.6591L25.1745 15.3962C24.8897 15.1552 24.7692 15.1333 23.7176 15.1333C22.5236 15.1333 22.0197 14.9909 21.8773 14.6404C21.8444 14.5418 21.8116 12.6577 21.8116 10.445C21.8116 6.47959 21.8116 6.43577 22.0526 6.18383L22.2826 5.93188H31.9879H41.6823L41.9343 6.17287Z" fill="#2999FF"/>
<path d="M23.5645 8.6705V9.65637H26.4125H29.2606V8.6705V7.68463H26.4125H23.5645V8.6705Z" fill="#2999FF"/>
<path d="M31.0137 8.67054V9.65641H35.7239H40.4342V8.67054V7.68467H35.7239H31.0137V8.67054Z" fill="#2999FF"/>
<path d="M23.5645 12.395V13.3809H31.9991H40.4338V12.395V11.4091H31.9991H23.5645V12.395Z" fill="#2999FF"/>
<path d="M9.76262 13.4465C9.36828 13.5232 8.57958 13.819 8.00997 14.1038C6.30113 14.9582 4.99759 16.437 4.30748 18.3321C4.03363 19.066 4.01172 19.2632 4.01172 20.7748C4.01172 22.2865 4.03363 22.4837 4.30748 23.2176C4.71278 24.3349 5.20572 25.1126 6.03823 25.9999L6.75024 26.7448L6.43258 26.8763C5.84105 27.1172 4.77851 28.2236 4.38416 29.0123L4.01172 29.7572V37.5894V45.4216L4.3513 46.1445C5.00854 47.5247 6.34494 48.5325 7.8347 48.7845L8.55767 48.905V54.4696V60.0453H9.54354H10.5294V54.4587V48.8721H13.7609H16.9923V54.0753C16.9923 59.5633 17.0142 59.7933 17.4853 59.9796C17.5839 60.0124 19.3036 60.0453 21.2973 60.0453C25.2189 60.0343 25.197 60.0453 25.427 59.4538C25.5804 59.0485 25.5804 45.2353 25.427 44.2823C25.3613 43.8989 25.175 43.3403 25.0107 43.0226C24.8464 42.7159 24.704 42.4311 24.6821 42.3763C24.6602 42.3325 26.0733 42.2996 27.8259 42.2996H31.0136V50.1866V58.0735H29.1514H27.2892V59.0594V60.0453H31.9995H36.7097V59.0594V58.0735H34.8475H32.9853V50.1866V42.2996H36.162C37.9147 42.2996 39.3387 42.3215 39.3387 42.3435C39.3387 42.3654 39.2182 42.6064 39.0649 42.8802C38.4952 43.8989 38.4624 44.2823 38.4624 52.0159C38.4624 56.6933 38.5062 59.2566 38.5719 59.4538C38.802 60.0453 38.78 60.0343 42.7016 60.0453C44.6953 60.0453 46.4151 60.0124 46.5136 59.9796C46.9847 59.7933 47.0066 59.5633 47.0066 54.0753V48.8721H50.238H53.4695V54.4587V60.0453H54.4554H55.4412V54.4696V48.905L56.1642 48.7845C57.654 48.5325 58.9904 47.5247 59.6476 46.1445L59.9872 45.4216V37.5894V29.7572L59.6148 29.0123C59.2204 28.2236 58.1579 27.1172 57.5663 26.8763L57.2487 26.7448L57.9607 25.9999C58.7932 25.1126 59.2861 24.3349 59.6914 23.2176C59.9653 22.4837 59.9872 22.2865 59.9872 20.7748C59.9872 19.2632 59.9653 19.066 59.6914 18.3321C59.2642 17.16 58.7822 16.3932 57.8511 15.4511C56.0328 13.6218 53.2833 12.855 50.7748 13.4903C47.5105 14.3229 45.2758 17.0066 45.0677 20.3367C44.9472 22.2208 45.5825 24.1596 46.7765 25.5946L47.3242 26.2519L45.002 26.2847L42.6907 26.3066L39.4482 23.0752L36.2058 19.8437H35.7348C35.2638 19.8437 35.2309 19.8656 33.292 21.7826C32.2076 22.8561 31.2546 23.8639 31.1669 24.0282C30.7945 24.7402 30.7069 24.6197 35.3733 29.2971C37.8161 31.7618 39.8755 33.7335 40.0726 33.8212C40.3574 33.9417 41.2119 33.9745 44.1585 33.9745H47.8829V37.1512V40.3279H39.996C35.6581 40.3279 32.109 40.306 32.109 40.2731C32.109 40.2403 33.0839 38.7505 34.2779 36.954C35.4719 35.1685 36.4797 33.6459 36.5235 33.5692C36.5783 33.4816 36.3154 33.2406 35.7677 32.8791C35.3185 32.5614 34.9242 32.3314 34.9132 32.3533C34.8913 32.3643 33.6864 34.1717 32.2295 36.3516L29.5896 40.3279H28.4941H27.4097L27.3768 37.8085C27.344 35.3657 27.333 35.289 27.092 35.048C26.851 34.7961 26.8401 34.7961 22.9075 34.7632L18.9641 34.7304V32.5614C18.9641 30.7321 18.9312 30.272 18.7559 29.7134C18.3835 28.5084 17.551 27.4678 16.5542 26.9639L16.1051 26.7339L16.7075 26.1314C18.2849 24.554 19.0517 22.5822 18.9312 20.3914C18.6683 15.725 14.3633 12.4607 9.76262 13.4465ZM12.8407 15.4402C15.6559 16.1741 17.4962 19.1865 16.839 21.9798C15.9955 25.5289 11.9096 27.413 8.83152 25.6494C7.00219 24.5978 5.92869 22.8013 5.92869 20.7858C5.92869 19.2412 6.45448 18.0034 7.59371 16.8642C8.97393 15.484 10.9457 14.9472 12.8407 15.4402ZM53.831 15.4073C55.748 15.9112 57.3363 17.4229 57.895 19.296C58.1359 20.1176 58.125 21.5197 57.8511 22.3741C57.3034 24.1487 55.7151 25.6823 53.9624 26.1423C50.9829 26.9091 47.8829 25.0141 47.1599 21.9798C46.2507 18.113 50.008 14.4105 53.831 15.4073ZM38.7581 25.2331L41.7486 28.2236L48.8469 28.2784C55.748 28.3332 55.9451 28.3441 56.4271 28.5632C57.0405 28.848 57.5992 29.3957 57.8621 29.9763C58.0483 30.3816 58.0702 30.8745 58.0702 37.5894V44.7643L57.8073 45.323C57.6649 45.6297 57.3582 46.035 57.1282 46.2212C56.3176 46.8894 56.2409 46.9004 50.6981 46.9004H45.6702L45.3525 47.218L45.0348 47.5357V52.8046V58.0735H42.7345H40.4232L40.456 51.2491L40.4889 44.4357L40.8285 43.8332C41.2338 43.1102 41.9348 42.5954 42.7345 42.4201C43.0631 42.3544 44.5419 42.2996 46.2836 42.2996H49.2741L49.537 42.0148L49.7999 41.73V37.1512V32.5724L49.537 32.2876L49.2741 32.0028H45.1006H40.9271L37.1807 28.2565L33.4235 24.4992L34.5408 23.3819C35.1652 22.7575 35.691 22.2536 35.7239 22.2536C35.7567 22.2536 37.126 23.601 38.7581 25.2331ZM15.3492 28.5851C16.0722 28.9685 16.5213 29.4505 16.7733 30.1077C16.9704 30.6335 16.9923 30.9621 16.9923 33.3282C16.9923 36.001 17.0252 36.2749 17.4195 36.5706C17.551 36.6692 18.6026 36.7021 21.5164 36.713H25.427V38.5205V40.3279H19.4022H13.3775V36.6035V32.8791H12.3916H11.4057V37.3155V41.7629L11.6796 42.0258L11.9425 42.2996H16.3241C19.0627 42.2996 20.9139 42.3435 21.2644 42.4201C22.0641 42.5954 22.7651 43.1102 23.1704 43.8332L23.51 44.4357L23.5429 51.2491L23.5757 58.0735H21.2644H18.9641V52.8046V47.5357L18.6464 47.218L18.3287 46.9004H13.3008C7.75802 46.9004 7.68134 46.8894 6.87074 46.2212C6.6407 46.035 6.33399 45.6297 6.19159 45.323L5.92869 44.7643V37.5894C5.92869 29.5929 5.89582 29.9653 6.69547 29.1766C7.51703 28.3551 7.88947 28.2893 11.7344 28.3112C14.7686 28.3332 14.8672 28.3441 15.3492 28.5851Z" fill="#2999FF"/>
</svg>
