<svg width="24" height="24" viewBox="0 0 24 24" fill="none" xmlns="http://www.w3.org/2000/svg">
<path d="M12 0C7.78125 0 4.26562 3.40308 4.26562 7.73438C4.26562 9.37964 4.75777 10.8562 5.71411 12.2344L11.4094 21.2156C11.55 21.4406 11.775 21.539 12 21.539C12.225 21.539 12.45 21.4406 12.5906 21.2156L18.3141 12.2062C19.2422 10.8844 19.7344 9.3375 19.7344 7.73438C19.7344 3.47339 16.261 0 12 0ZM12 11.25C10.0615 11.25 8.48438 9.67289 8.48438 7.73438C8.48438 5.79586 10.0615 4.21875 12 4.21875C13.9385 4.21875 15.5156 5.79586 15.5156 7.73438C15.5156 9.67289 13.9385 11.25 12 11.25Z" fill="#2999FF"/>
</svg>
