<svg width="32" height="32" viewBox="0 0 32 32" fill="none" xmlns="http://www.w3.org/2000/svg">
<path d="M20.7046 0V19.0532C20.7046 21.5548 18.5928 23.5878 15.9991 23.5878C13.4054 23.5878 11.2935 21.5548 11.2935 19.0532V0H1.88242V19.6367C1.88242 27.6668 9.15532 32 15.9991 32C22.8428 32 30.1157 27.6668 30.1157 19.6367V0H20.7046ZM28.2335 1.88235V7.52941H22.5869V1.88235H28.2335ZM9.4113 1.88235V7.52941H3.76464V1.88235H9.4113ZM15.9991 30.1176C11.0808 30.1176 3.76464 27.3261 3.76464 19.6367V9.41177H9.4113V19.0532C9.4113 22.592 12.3664 25.4701 15.9991 25.4701C19.6318 25.4701 22.5869 22.592 22.5869 19.0532V9.41177H28.2335V19.6367C28.2335 27.3261 20.9173 30.1176 15.9991 30.1176Z" fill="#2999FF"/>
</svg>
