<svg width="52" height="39" viewBox="0 0 52 39" fill="none" xmlns="http://www.w3.org/2000/svg">
<path d="M51.4083 9.766L51.344 9.3316L51.2771 9.34711C50.8198 7.19847 49.7666 5.22384 48.2392 3.65168C46.7118 2.07952 44.7726 0.974093 42.6461 0.463308C40.5195 -0.047477 38.2925 0.0572536 36.2227 0.765383C34.153 1.47351 32.325 2.7561 30.9504 4.46474C29.5757 6.17337 28.7106 8.23823 28.4551 10.4204C28.1995 12.6025 28.564 14.8128 29.5064 16.7955C30.4488 18.7781 31.9306 20.4521 33.7802 21.6237C35.6299 22.7954 37.7718 23.4168 39.9583 23.416C40.5321 23.416 41.0827 23.3281 41.6307 23.248C41.4532 23.8478 41.2705 24.4581 40.9772 25.0062C40.6839 25.8026 40.2259 26.493 39.7704 27.1886C39.3896 27.941 38.7181 28.4504 38.224 29.0943C37.7069 29.72 37.0019 30.1363 36.4435 30.656C35.8954 31.199 35.1776 31.4706 34.6063 31.8532C34.0094 32.1971 33.4897 32.5772 32.9339 32.7582L31.547 33.3323L30.3274 33.8417L31.5727 38.8554L33.1088 38.483C33.6003 38.3589 34.1998 38.2141 34.8817 38.0409C35.579 37.9116 36.3226 37.5573 37.1511 37.2341C37.9667 36.8644 38.9162 36.6187 39.7962 36.0266C40.6813 35.4629 41.7028 34.9923 42.6033 34.2373C43.4756 33.459 44.528 32.7841 45.305 31.7963C46.1541 30.8707 46.9929 29.8984 47.6439 28.7917C48.3978 27.7368 48.9099 26.5784 49.4502 25.4329C49.9391 24.2874 50.3327 23.1161 50.6544 21.9784C51.2642 19.6978 51.5369 17.5309 51.6424 15.677C51.7299 13.8204 51.6784 12.2767 51.5704 11.1597C51.5342 10.6932 51.4801 10.2283 51.4083 9.766ZM23.1049 9.766L23.0406 9.3316L22.9737 9.34711C22.5164 7.19847 21.4632 5.22384 19.9358 3.65168C18.4084 2.07952 16.4692 0.974093 14.3426 0.463308C12.2161 -0.047477 9.98912 0.0572536 7.91934 0.765383C5.84957 1.47351 4.02161 2.7561 2.64696 4.46474C1.27232 6.17337 0.407185 8.23823 0.151651 10.4204C-0.103882 12.6025 0.260634 14.8128 1.20302 16.7955C2.14541 18.7781 3.62715 20.4521 5.47681 21.6237C7.32646 22.7954 9.46842 23.4168 11.6549 23.416C12.2286 23.416 12.7793 23.3281 13.3273 23.248C13.1498 23.8478 12.9671 24.4581 12.6738 25.0062C12.3805 25.8026 11.9225 26.493 11.467 27.1886C11.0862 27.941 10.4147 28.4504 9.92064 29.0943C9.40346 29.72 8.69844 30.1363 8.14009 30.656C7.59204 31.199 6.87416 31.4706 6.30295 31.8532C5.706 32.1971 5.18625 32.5772 4.63047 32.7582L3.24361 33.3323C2.46912 33.6503 2.02656 33.8365 2.02656 33.8365L3.27191 38.8502L4.80801 38.4779C5.29946 38.3537 5.89898 38.2089 6.58083 38.0357C7.27813 37.9064 8.02173 37.5522 8.85025 37.229C9.6659 36.8592 10.6154 36.6136 11.4953 36.0214C12.3805 35.4577 13.402 34.9871 14.3025 34.2321C15.1748 33.4538 16.2271 32.7789 17.0042 31.7912C17.8533 30.8655 18.6921 29.8933 19.3431 28.7866C20.097 27.7316 20.609 26.5732 21.1494 25.4277C21.6382 24.2822 22.0319 23.1109 22.3535 21.9732C22.9634 19.6926 23.2361 17.5258 23.3416 15.6718C23.4291 13.8152 23.3776 12.2716 23.2696 11.1545C23.2311 10.6899 23.1762 10.2267 23.1049 9.766Z" fill="#2999FF" fill-opacity="0.4"/>
</svg>
