<svg width="48" height="48" viewBox="0 0 48 48" fill="none" xmlns="http://www.w3.org/2000/svg">
<g clip-path="url(#clip0_110_386)">
<path d="M43.8521 10.5103C42.3125 8.24927 40.4204 6.2878 38.2549 4.68846H43.1591V1.71939H31.1295V13.8178H34.0986V5.54702C40.8068 9.20976 45.0309 16.2282 45.0309 24C45.0309 35.5965 35.5965 45.0309 24 45.0309C12.4035 45.0309 2.96907 35.5965 2.96907 24C2.96907 12.4035 12.4035 2.96907 24 2.96907C24.5203 2.96907 25.0508 2.98887 25.5766 3.02776L25.7958 0.0668041C25.1973 0.022466 24.5931 0 24 0C17.5894 0 11.5625 2.4965 7.02948 7.02938C2.4965 11.5625 0 17.5894 0 24C0 30.4106 2.4965 36.4375 7.02948 40.9705C11.5625 45.5035 17.5894 48 24 48C30.4106 48 36.4375 45.5035 40.9706 40.9705C45.5035 36.4375 48 30.4106 48 24C48 19.1605 46.5656 14.4958 43.8521 10.5103Z" fill="#2999FF"/>
<path d="M22.5154 22.5155H8.4126V25.4845H25.4845V8.43771H22.5154V22.5155Z" fill="#2999FF"/>
</g>
<defs>
<clipPath id="clip0_110_386">
<rect width="48" height="48" fill="white"/>
</clipPath>
</defs>
</svg>
