<svg width="48" height="48" viewBox="0 0 48 48" fill="none" xmlns="http://www.w3.org/2000/svg">
<g clip-path="url(#clip0_110_405)">
<path d="M32.8213 15.9967H30.4203V13.5956C30.4203 13.1154 30.1002 12.7953 29.62 12.7953H18.4152C17.935 12.7953 17.6149 13.1154 17.6149 13.5956V15.9967H15.2139C14.7337 15.9967 14.4136 16.3168 14.4136 16.797V32.7237C14.4136 32.9638 14.4936 33.2039 14.7337 33.364L23.5374 39.2064C23.6975 39.2864 23.8575 39.3665 24.0176 39.3665C24.1777 39.3665 24.3377 39.3665 24.4978 39.2064L33.3016 33.364C33.4617 33.2039 33.6217 32.9638 33.6217 32.7237V16.797C33.6216 16.3168 33.3015 15.9967 32.8213 15.9967ZM32.0209 32.2435L24.0175 37.6057L16.0142 32.3235V17.5973H18.4152C18.8954 17.5973 19.2155 17.2772 19.2155 16.797V14.396H28.8196V16.797C28.8196 17.2772 29.1397 17.5973 29.6199 17.5973H32.0209V32.2435Z" fill="#2999FF"/>
<path d="M45.2939 12.5221C45.3848 12.4104 45.4424 12.2681 45.46 12.1035L46.5553 9.34219C46.6637 9.2197 46.7304 9.05773 46.7439 8.86677L47.9475 5.8324C48.0275 5.5923 48.0275 5.3522 47.8675 5.1121C47.7074 4.952 47.4673 4.79199 47.2272 4.79199H35.2222C34.9821 4.79199 34.742 4.95209 34.5019 5.19219L31.5673 9.59402H16.4409L13.453 5.1121C13.2929 4.952 13.0528 4.79199 12.8127 4.79199H0.807587C0.567485 4.79199 0.327384 5.03209 0.167285 5.19219C0.00718646 5.35229 -0.0728161 5.6724 0.0872827 5.9125L1.30111 8.95569C1.32165 9.07939 1.3662 9.18866 1.43072 9.28057L2.58405 12.1721C2.60469 12.2847 2.64549 12.385 2.70317 12.4708L3.86925 15.3942C3.88989 15.4934 3.92553 15.5832 3.9757 15.661L5.76962 20.1585C6.81003 22.7196 8.65083 24.7204 10.8917 25.9209C10.9888 25.9856 11.0992 26.0501 11.2119 26.1095V34.4045C11.2119 34.7246 11.372 34.9647 11.532 35.0448L23.537 43.0481C23.6971 43.1281 23.8571 43.2082 24.0172 43.2082C24.1773 43.2082 24.3373 43.2082 24.4974 43.0481L36.5025 35.0448C36.6626 34.8847 36.8226 34.6446 36.8226 34.4045V26.0863C36.9353 26.0372 37.0456 25.9856 37.1427 25.9209C39.3836 24.8004 41.2244 22.7196 42.2648 20.1585L44.0365 15.6918C44.1067 15.595 44.1539 15.4782 44.174 15.3452L45.2939 12.5221ZM7.29032 19.5982L5.84971 15.9967H8.81093C9.29113 15.9967 9.61124 15.6766 9.61124 15.1963C9.61124 14.7161 9.29113 14.396 8.81093 14.396H5.20941L4.56911 12.7953H7.21023C7.69043 12.7953 8.01053 12.4752 8.01053 11.995C8.01053 11.5148 7.69043 11.1947 7.21023 11.1947H3.9289L3.2886 9.59402H6.40992C6.89012 9.59402 7.21023 9.27391 7.21023 8.79371C7.21023 8.31351 6.89012 7.99341 6.40992 7.99341H2.64839L2.00809 6.3926H12.4125L14.6378 9.81011C14.4951 9.95032 14.4133 10.1518 14.4133 10.3943V12.7953H12.0123C11.532 12.7953 11.2119 13.1154 11.2119 13.5956V24.3202C9.53133 23.2797 8.09072 21.679 7.29032 19.5982ZM35.2222 34.0043L24.0174 41.4474L12.8127 34.0043V25.6007V14.3959H15.2137C15.6939 14.3959 16.014 14.0758 16.014 13.5956V11.1946H32.0208V13.5956C32.0208 14.0758 32.3409 14.3959 32.8211 14.3959H35.2221V25.6007V34.0043H35.2222ZM36.8228 24.3201V13.5956C36.8228 13.1154 36.5027 12.7953 36.0225 12.7953H33.6215V10.3943C33.6215 10.1518 33.5396 9.95032 33.3969 9.81011L35.6223 6.3926H46.0266L45.3863 7.99331H41.6248C41.1446 7.99331 40.8245 8.31342 40.8245 8.79362C40.8245 9.27382 41.1446 9.59392 41.6248 9.59392H44.7461L44.1058 11.1946H40.8244C40.3442 11.1946 40.0241 11.5147 40.0241 11.9949C40.0241 12.4751 40.3442 12.7952 40.8244 12.7952H43.4655L42.8252 14.3959H39.2237C38.7435 14.3959 38.4234 14.7161 38.4234 15.1963C38.4234 15.6765 38.7435 15.9966 39.2237 15.9966H42.1849L40.7443 19.5981C39.9441 21.679 38.5836 23.2797 36.8228 24.3201Z" fill="#2999FF"/>
</g>
<defs>
<clipPath id="clip0_110_405">
<rect width="48" height="48" fill="white"/>
</clipPath>
</defs>
</svg>
