<svg width="63" height="63" viewBox="0 0 63 63" fill="none" xmlns="http://www.w3.org/2000/svg">
<path d="M20.5869 0.119045C19.9579 0.185459 18.7392 0.384705 17.9006 0.583946C9.69764 2.43026 3.18507 8.67319 0.813291 16.9085C0.118791 19.3393 -0.0122462 20.3621 0.000857515 23.4835C0.000857515 26.0604 0.0401688 26.4988 0.354659 28.013C2.54299 38.4666 10.8901 45.9315 21.2945 46.7152C27.1387 47.1536 32.9437 45.3205 37.5038 41.6013L38.6045 40.7114L41.4743 43.6203L44.3571 46.5425L44.0557 47.1934C43.8198 47.7247 43.7543 48.0834 43.7543 48.9866C43.7674 50.9923 43.715 50.9259 49.6117 56.9164C55.6656 63.0664 55.587 63 57.6443 63C58.8236 63 59.0202 62.9601 59.6492 62.6281C60.4878 62.1764 61.2609 61.3927 61.6409 60.6091C62.2306 59.3738 62.1913 57.5939 61.5623 56.4117C61.3396 56.0132 59.3871 53.9411 55.9015 50.4211C50.8697 45.3338 50.529 45.015 49.782 44.7361C48.7862 44.3642 47.1875 44.404 46.3751 44.8158L45.8509 45.0814L42.9419 42.1592L40.0328 39.2503L40.7929 38.3072C43.204 35.292 44.8157 31.865 45.615 28.013C45.9295 26.512 45.9688 26.0471 45.9688 23.55C45.982 20.5613 45.8902 19.7644 45.2612 17.307C43.1122 8.96542 36.4424 2.47011 28.0953 0.583946C25.5139 0.0127831 23.2207 -0.133327 20.5869 0.119045ZM25.1863 2.11147C32.2885 2.88187 38.5783 7.26521 41.7756 13.6543C43.3612 16.8288 44.0819 19.8573 44.0819 23.3242C44.0819 29.2616 41.946 34.4552 37.7921 38.626C29.694 46.7418 16.6688 46.8348 8.47899 38.8385C5.12443 35.5842 3.02783 31.6259 2.18919 27.0035C1.86159 25.2634 1.8747 21.4646 2.20229 19.6979C4.24648 8.56693 14.2577 0.902733 25.1863 2.11147ZM49.022 46.5957C49.5069 46.7816 59.6492 57.036 59.885 57.5806C60.5271 59.0815 59.5181 60.8614 57.9195 61.0341C56.727 61.1802 56.7139 61.1537 51.2497 55.6413C48.4455 52.8253 46.0475 50.2883 45.9033 50.0226C44.9074 48.0834 46.9647 45.8253 49.022 46.5957Z" fill="#2999FF"/>
<path d="M15.5417 11.3964C11.6892 13.2825 8.4395 14.9296 8.29536 15.0624C8.05949 15.2883 8.04639 15.5672 8.04639 23.4173C8.04639 30.9886 8.05949 31.5597 8.28225 31.7457C8.62295 32.0379 22.7226 38.8918 22.9847 38.8918C23.2599 38.8918 37.3464 32.0379 37.7002 31.7457C37.9099 31.5597 37.923 30.9886 37.923 23.4173C37.923 15.8461 37.9099 15.275 37.7002 15.0757C37.2285 14.6507 23.2992 7.94285 22.9061 7.95613C22.6964 7.96942 19.4073 9.49694 15.5417 11.3964ZM25.3171 11.1573C26.5489 11.755 27.571 12.2863 27.571 12.3262C27.571 12.366 24.9633 13.6678 21.766 15.2218L15.9611 18.0511L13.6155 16.8955L11.2568 15.7399L11.912 15.4211C19.2239 11.8347 22.8143 10.0947 22.9192 10.0814C22.9978 10.0681 24.0723 10.5596 25.3171 11.1573ZM34.5422 15.793C34.4898 15.8461 31.869 17.1346 28.711 18.6754L22.9847 21.4781L20.626 20.3092L18.2673 19.1536L24.1378 16.2978L29.9952 13.4419L32.3146 14.571C33.5987 15.1953 34.5946 15.7399 34.5422 15.793ZM16.0528 20.3092L22.0674 23.258V29.8064V36.3415L19.6825 35.1727C18.359 34.5351 15.6335 33.1935 13.6155 32.2106L9.94643 30.4041L9.90712 23.8955C9.89402 20.3092 9.92022 17.3737 9.95954 17.3737C9.99885 17.3737 12.7506 18.7019 16.0528 20.3092ZM36.0884 23.8557V30.351L30.1 33.2865C26.7979 34.907 24.0592 36.2353 24.0068 36.2353C23.9412 36.2353 23.9019 33.3131 23.9019 29.7533V23.258L29.9035 20.3224C33.1925 18.7152 35.9312 17.3869 35.9967 17.3869C36.0491 17.3737 36.0884 20.2959 36.0884 23.8557Z" fill="#2999FF"/>
<path d="M12.9606 23.1514C12.6068 23.4968 12.5544 23.8687 12.7771 24.307C12.9737 24.6922 17.3241 26.8042 17.9138 26.8042C18.1759 26.8042 18.451 26.7112 18.569 26.5651C18.8573 26.233 18.8573 25.4361 18.569 25.1837C18.2021 24.8516 13.904 22.8194 13.5764 22.8194C13.4061 22.8194 13.1309 22.9655 12.9606 23.1514Z" fill="#2999FF"/>
</svg>
