<svg width="139" height="31" viewBox="0 0 139 31" fill="none" xmlns="http://www.w3.org/2000/svg">
<path d="M37.0736 27V25.86C37.8336 25.84 38.4436 25.79 38.9036 25.71C39.3836 25.61 39.7536 25.44 40.0136 25.2C40.2736 24.94 40.4436 24.6 40.5236 24.18C40.6236 23.74 40.6736 23.16 40.6736 22.44V8.46C40.6736 7.76 40.6336 7.2 40.5536 6.78C40.4936 6.34 40.3536 6 40.1336 5.76C39.9336 5.5 39.6336 5.33 39.2336 5.25C38.8336 5.15 38.3136 5.08 37.6736 5.04V3.9H48.2036C50.0036 3.9 51.6636 4.2 53.1836 4.8C54.7236 5.4 56.0436 6.23 57.1436 7.29C58.2636 8.35 59.1336 9.61 59.7536 11.07C60.3736 12.53 60.6836 14.12 60.6836 15.84C60.6836 17.48 60.3936 18.99 59.8136 20.37C59.2336 21.73 58.4136 22.9 57.3536 23.88C56.3136 24.86 55.0636 25.63 53.6036 26.19C52.1436 26.73 50.5436 27 48.8036 27H37.0736ZM44.3336 5.37C43.9936 5.37 43.8236 5.54 43.8236 5.88V22.11C43.8236 24.39 45.3136 25.53 48.2936 25.53C51.0336 25.53 53.1336 24.72 54.5936 23.1C56.0536 21.46 56.7836 19.06 56.7836 15.9C56.7836 14.24 56.5836 12.76 56.1836 11.46C55.7836 10.16 55.2036 9.06 54.4436 8.16C53.7036 7.26 52.8036 6.57 51.7436 6.09C50.6836 5.61 49.4836 5.37 48.1436 5.37H44.3336ZM78.1073 24.21C76.4073 26.27 74.2973 27.3 71.7773 27.3C70.5973 27.3 69.5273 27.11 68.5673 26.73C67.6073 26.33 66.7773 25.78 66.0773 25.08C65.3973 24.36 64.8673 23.51 64.4873 22.53C64.1073 21.53 63.9173 20.43 63.9173 19.23C63.9173 18.01 64.1173 16.88 64.5173 15.84C64.9173 14.8 65.4773 13.91 66.1973 13.17C66.9373 12.43 67.8073 11.85 68.8073 11.43C69.8273 11.01 70.9373 10.8 72.1373 10.8C74.0773 10.8 75.5773 11.33 76.6373 12.39C77.6973 13.43 78.2273 14.93 78.2273 16.89C78.2273 17.17 78.1673 17.34 78.0473 17.4C77.9473 17.46 77.6973 17.49 77.2973 17.49H67.4273C67.3873 17.65 67.3573 17.85 67.3373 18.09C67.3173 18.31 67.3073 18.56 67.3073 18.84C67.3073 19.88 67.4273 20.83 67.6673 21.69C67.9273 22.53 68.2873 23.25 68.7473 23.85C69.2273 24.45 69.7873 24.92 70.4273 25.26C71.0873 25.58 71.8173 25.74 72.6173 25.74C73.4573 25.74 74.2373 25.56 74.9573 25.2C75.6773 24.82 76.4173 24.21 77.1773 23.37L78.1073 24.21ZM73.1573 16.11C73.5573 16.11 73.8773 16.1 74.1173 16.08C74.3573 16.06 74.5373 16.02 74.6573 15.96C74.7773 15.9 74.8573 15.82 74.8973 15.72C74.9373 15.6 74.9573 15.45 74.9573 15.27C74.9573 14.35 74.6573 13.62 74.0573 13.08C73.4773 12.52 72.6773 12.24 71.6573 12.24C69.4973 12.24 68.1573 13.53 67.6373 16.11H73.1573ZM91.2288 14.64C91.7088 14.04 91.9488 13.53 91.9488 13.11C91.9488 12.47 91.3588 12.15 90.1788 12.15V11.1H96.7488V12.15C96.3888 12.15 96.0588 12.19 95.7588 12.27C95.4788 12.35 95.1988 12.48 94.9188 12.66C94.6388 12.84 94.3488 13.09 94.0488 13.41C93.7688 13.71 93.4488 14.09 93.0888 14.55L89.9988 18.48L93.9888 23.73C94.6088 24.55 95.1788 25.13 95.6988 25.47C96.2388 25.79 96.8088 25.95 97.4088 25.95V27H89.4288V25.95C90.1488 25.95 90.6488 25.9 90.9288 25.8C91.2088 25.68 91.3488 25.46 91.3488 25.14C91.3488 25 91.2588 24.8 91.0788 24.54C90.9188 24.26 90.6388 23.86 90.2388 23.34L88.1388 20.64L85.5888 23.88C85.2888 24.24 85.1388 24.6 85.1388 24.96C85.1388 25.24 85.2588 25.48 85.4988 25.68C85.7388 25.86 86.1188 25.95 86.6388 25.95V27H79.7688V25.95C80.2288 25.95 80.6388 25.91 80.9988 25.83C81.3588 25.75 81.6988 25.61 82.0188 25.41C82.3588 25.21 82.6988 24.93 83.0388 24.57C83.3988 24.21 83.7988 23.76 84.2388 23.22L87.2988 19.47L83.3088 13.8C82.8488 13.16 82.4288 12.73 82.0488 12.51C81.6688 12.27 81.1888 12.15 80.6088 12.15V11.1H87.9888V12.15C87.4488 12.15 87.0588 12.22 86.8188 12.36C86.5788 12.48 86.4588 12.65 86.4588 12.87C86.4588 13.17 86.6488 13.59 87.0288 14.13L89.1888 17.28L91.2288 14.64ZM104.02 22.32C104.02 23.08 104.05 23.69 104.11 24.15C104.17 24.61 104.29 24.97 104.47 25.23C104.67 25.49 104.94 25.67 105.28 25.77C105.64 25.87 106.11 25.93 106.69 25.95V27H98.41V25.95C99.01 25.93 99.49 25.87 99.85 25.77C100.21 25.65 100.49 25.47 100.69 25.23C100.91 24.99 101.05 24.66 101.11 24.24C101.19 23.8 101.23 23.23 101.23 22.53V9.6C101.23 8.52 101.21 7.62 101.17 6.9C101.15 6.16 101.11 5.66 101.05 5.4C100.95 4.94 100.71 4.63 100.33 4.47C99.97 4.31 99.31 4.23 98.35 4.23V3.21L104.02 2.1V22.32ZM123.166 24.21C121.466 26.27 119.356 27.3 116.836 27.3C115.656 27.3 114.586 27.11 113.626 26.73C112.666 26.33 111.836 25.78 111.136 25.08C110.456 24.36 109.926 23.51 109.546 22.53C109.166 21.53 108.976 20.43 108.976 19.23C108.976 18.01 109.176 16.88 109.576 15.84C109.976 14.8 110.536 13.91 111.256 13.17C111.996 12.43 112.866 11.85 113.866 11.43C114.886 11.01 115.996 10.8 117.196 10.8C119.136 10.8 120.636 11.33 121.696 12.39C122.756 13.43 123.286 14.93 123.286 16.89C123.286 17.17 123.226 17.34 123.106 17.4C123.006 17.46 122.756 17.49 122.356 17.49H112.486C112.446 17.65 112.416 17.85 112.396 18.09C112.376 18.31 112.366 18.56 112.366 18.84C112.366 19.88 112.486 20.83 112.726 21.69C112.986 22.53 113.346 23.25 113.806 23.85C114.286 24.45 114.846 24.92 115.486 25.26C116.146 25.58 116.876 25.74 117.676 25.74C118.516 25.74 119.296 25.56 120.016 25.2C120.736 24.82 121.476 24.21 122.236 23.37L123.166 24.21ZM118.216 16.11C118.616 16.11 118.936 16.1 119.176 16.08C119.416 16.06 119.596 16.02 119.716 15.96C119.836 15.9 119.916 15.82 119.956 15.72C119.996 15.6 120.016 15.45 120.016 15.27C120.016 14.35 119.716 13.62 119.116 13.08C118.536 12.52 117.736 12.24 116.716 12.24C114.556 12.24 113.216 13.53 112.696 16.11H118.216ZM131.363 22.23C131.363 23.05 131.383 23.7 131.423 24.18C131.463 24.66 131.563 25.03 131.723 25.29C131.903 25.53 132.153 25.69 132.473 25.77C132.793 25.85 133.243 25.91 133.823 25.95V27H125.843V25.95C126.423 25.93 126.883 25.88 127.223 25.8C127.563 25.7 127.823 25.53 128.003 25.29C128.183 25.05 128.293 24.71 128.333 24.27C128.393 23.81 128.423 23.2 128.423 22.44V18.93C128.423 17.57 128.403 16.51 128.363 15.75C128.343 14.99 128.243 14.43 128.063 14.07C127.903 13.71 127.643 13.5 127.283 13.44C126.923 13.36 126.423 13.32 125.783 13.32V12.27L131.033 11.13L131.453 14.85H131.573C131.833 14.25 132.153 13.7 132.533 13.2C132.933 12.7 133.363 12.28 133.823 11.94C134.283 11.58 134.763 11.3 135.263 11.1C135.763 10.9 136.273 10.8 136.793 10.8C137.433 10.8 137.933 10.96 138.293 11.28C138.673 11.58 138.863 11.99 138.863 12.51C138.863 12.99 138.713 13.37 138.413 13.65C138.113 13.91 137.683 14.04 137.123 14.04C136.803 14.04 136.533 14 136.313 13.92C136.093 13.84 135.893 13.76 135.713 13.68C135.553 13.58 135.393 13.49 135.233 13.41C135.093 13.33 134.933 13.29 134.753 13.29C134.213 13.29 133.673 13.64 133.133 14.34C132.593 15.02 132.173 15.89 131.873 16.95C131.713 17.53 131.583 18.19 131.483 18.93C131.403 19.65 131.363 20.41 131.363 21.21V22.23Z" fill="#2999FF"/>
<path fill-rule="evenodd" clip-rule="evenodd" d="M25.3892 16.4375L30.8544 27.9157C31.3189 28.9377 30.5844 29.2634 29.8824 28.1403C28.2984 25.8363 26.4885 23.7097 24.4819 21.7947C14.2534 11.5969 5.97992 24.5913 0.860287 30.7234C0.428251 31.2513 -0.543832 31.1951 0.395848 29.0051L5.25626 16.7632L7.57846 10.8781L10.1167 4.34162C12.4497 -1.71193 16.8672 -1.39746 19.9347 5.04918L24.9247 15.5502L25.3784 16.5049L25.3892 16.4375ZM28.3378 24.5014H28.3918C28.3918 24.5014 28.3918 24.4453 28.3918 24.4116C28.3918 24.3779 28.3918 24.4116 28.3918 24.5014" fill="url(#paint0_linear_502_533)"/>
<g style="mix-blend-mode:multiply">
<path fill-rule="evenodd" clip-rule="evenodd" d="M25.3892 16.4375L30.8544 27.9157C31.3189 28.9377 30.5844 29.2634 29.8824 28.1403C28.2984 25.8363 26.4885 23.7097 24.4819 21.7947C14.2534 11.5969 5.97992 24.5913 0.860287 30.7234C0.428251 31.2513 -0.543832 31.1951 0.395848 29.0051L5.25626 16.7632L7.57846 10.8781L10.1167 4.34162C12.4497 -1.71193 16.8672 -1.39746 19.9347 5.04918L24.9247 15.5502L25.3784 16.5049L25.3892 16.4375ZM28.3378 24.5014H28.3918C28.3918 24.5014 28.3918 24.4453 28.3918 24.4116C28.3918 24.3779 28.3918 24.4116 28.3918 24.5014" fill="url(#paint1_linear_502_533)"/>
</g>
<path fill-rule="evenodd" clip-rule="evenodd" d="M30.8544 27.9201C31.3189 28.9407 30.5844 29.2659 29.8823 28.1444C23.0772 5.71477 16.121 11.4455 0.858251 30.7238C0.436987 31.2509 -0.545963 31.1949 0.39378 29.008L5.25452 16.7838L7.57687 10.8624L10.1153 4.33534C12.4484 -1.70945 16.8663 -1.39543 19.934 5.04188L30.822 27.9201H30.8544Z" fill="#2999FF"/>
<defs>
<linearGradient id="paint0_linear_502_533" x1="2.29681" y1="17.1226" x2="21.513" y2="14.7723" gradientUnits="userSpaceOnUse">
<stop stop-color="#61A9FF"/>
<stop offset="1" stop-color="#0056F1"/>
</linearGradient>
<linearGradient id="paint1_linear_502_533" x1="15.5" y1="0" x2="15.5" y2="31" gradientUnits="userSpaceOnUse">
<stop stop-color="#FFD48A"/>
<stop offset="0.270833" stop-color="#FF9995"/>
<stop offset="0.848958" stop-color="#6EE7CB"/>
</linearGradient>
</defs>
</svg>
